<svg xmlns="http://www.w3.org/2000/svg" width="651.456" height="641.324" viewBox="0 0 651.456 641.324">
  <g id="Group_3" data-name="Group 3" transform="translate(-323.545 -72.918)" opacity="0.033">
    <path id="Path_23" data-name="Path 23" d="M975,426.9c-.323,1.772-.605,4.319-1.259,6.762a22.506,22.506,0,0,0,.484,14.625,9.121,9.121,0,0,1,.678,3.124c.17,8.659-1.368,16.866-6.737,23.958a160.156,160.156,0,0,0-14.573,23.119,168.088,168.088,0,0,1-10.77,17.459,25.135,25.135,0,0,1-12.809,10.027c-16.837,5.627-32.1,14.379-46.859,24C870,558.554,857.2,567.694,844.3,576.663a43.734,43.734,0,0,0-14.355,17.124,110.842,110.842,0,0,1-14.565,22.642,63.212,63.212,0,0,0-4.909,6.887C803.2,634.87,793.7,643.7,781.018,649.253c-5.845,2.559-11.158,6.382-16.6,9.817-4.763,3-9.252,6.463-14.076,9.361a71.344,71.344,0,0,0-19.522,16.632,31.342,31.342,0,0,1-11.63,9.083c-4.872,2.253-9.652,4.719-14.447,7.137a29.912,29.912,0,0,1-12.7,3.492,21.577,21.577,0,0,0-13.757,4.957,9.594,9.594,0,0,1-3.133,1.78c-7.25,2.345-14.755,4-22.138,1.437-12.369-4.3-25.141-6.636-37.934-9.026-2.37-.444-4.695-1.142-7.024-1.776a34.769,34.769,0,0,1-19.9-13.487c-8.489-11.743-19.28-21.342-30.4-30.449-12.99-10.633-26.453-20.676-39.71-30.982a50.973,50.973,0,0,0-25.484-10.237,92.278,92.278,0,0,1-20.236-5.2c-4.408-1.607-8.913-2.959-13.418-4.279-11.84-3.468-22.36-9.042-30.542-18.545a89.986,89.986,0,0,0-15.647-13.874c-4.453-3.225-8.832-6.584-12.978-10.193A70.766,70.766,0,0,0,377.9,551.45a31.282,31.282,0,0,1-12.248-8.231c-3.835-4.134-7.831-8.122-11.8-12.13a27.432,27.432,0,0,1-6.56-10.035,22.76,22.76,0,0,0-9.426-12.191,9.31,9.31,0,0,1-2.608-2.483c-4.643-6.572-8.267-13.6-8.078-21.908a188.5,188.5,0,0,0-2.539-32.847c-1.038-6.766-1.574-13.616-.533-20.479a23.368,23.368,0,0,1,3.625-10.161c14.524-20.692,23.276-44.1,31.8-67.6,2.838-7.823,5.353-15.764,8.017-23.651a47.845,47.845,0,0,0,1.6-24.657,98.818,98.818,0,0,1-1.473-22.061c.157-4.562.117-9.139-.057-13.7-.492-12.768,1.711-24.838,8.5-35.9a83.672,83.672,0,0,0,7.969-18.444c1.679-5.236,3.512-10.443,5.688-15.485a73.145,73.145,0,0,0,6.18-26.11,26.717,26.717,0,0,1,3.165-11.553c3.024-5.692,6-11.412,8.986-17.124a26.165,26.165,0,0,1,7.1-8.663c4.243-3.31,7.444-7.323,8.744-12.68a8.676,8.676,0,0,1,1.308-2.923c4.783-6.673,10.447-12.353,18.5-14.88A178.771,178.771,0,0,0,472.79,93.72,73.762,73.762,0,0,1,493.938,86.1a24.153,24.153,0,0,1,11.553.626C524.4,92.6,543.93,94.3,563.544,95.145c13.685.589,27.394.605,41.09.884a42.55,42.55,0,0,0,20.927-5.115,119.423,119.423,0,0,1,26.6-10.3,44.814,44.814,0,0,0,6.479-2.192,73.637,73.637,0,0,1,22.634-5.353,51.8,51.8,0,0,1,15.59,1.28,100.654,100.654,0,0,0,22.416,2.083c5.224-.04,10.471.234,15.683.666,7.835.646,15.626.545,23.191-1.627a39.625,39.625,0,0,1,19.51-.416c4.331.908,8.716,1.6,13.1,2.261a27.49,27.49,0,0,1,11.63,4.235c4.578,3.1,9.519,4.884,15.15,4.493a9.169,9.169,0,0,1,3.573.468c7.6,2.652,14.617,6.253,19.38,13.067a174.628,174.628,0,0,0,19.1,22.808,145.471,145.471,0,0,1,12.6,15.154,23.8,23.8,0,0,1,5.058,14.222c.117,17.342,3.516,34.2,7.993,50.811,4.227,15.679,9.091,31.184,13.77,46.738a44.375,44.375,0,0,0,12.143,19.219,105.354,105.354,0,0,1,16.082,19.562,68.8,68.8,0,0,0,5.716,7.787,72.192,72.192,0,0,1,10.322,16.28,52.9,52.9,0,0,1,4.909,18.178,92.8,92.8,0,0,0,4.291,20.043c1.764,5.631,3.427,11.3,4.828,17.031,1.93,7.892,4.582,15.469,9.111,22.251a35.647,35.647,0,0,1,5.845,16.1c.63,5.466,1.578,10.9,2.345,16.349C974.795,423.436,974.831,424.784,975,426.9Zm-646.364,17.58c.214,14.847,2.576,29.416,5.861,43.839,1.243,5.458,3.815,10.512,8.441,13.814a35.408,35.408,0,0,1,12.4,15.97,22.272,22.272,0,0,0,4.126,6.338c4.065,4.473,8.425,8.671,12.579,13.063a22.551,22.551,0,0,0,8.639,5.736c9.317,3.472,17.394,8.913,24.842,15.437,3.827,3.359,7.871,6.5,12,9.478,5.8,4.182,11.46,8.546,16.034,14.036,7.4,8.877,17,13.721,27.963,16.438,5.47,1.356,10.859,3.028,16.333,4.372,5.861,1.441,11.727,2.939,17.673,3.924a58.249,58.249,0,0,1,24.515,9.644c5.05,3.56,10.052,7.193,14.952,10.956,21.415,16.446,40.925,34.853,56.7,56.882a34.383,34.383,0,0,0,18.178,13.14,214.981,214.981,0,0,0,48.122,9.3,22.3,22.3,0,0,0,15.659-4.13,30.276,30.276,0,0,1,17.1-6.318,23.78,23.78,0,0,0,9.66-2.535q7.72-3.93,15.525-7.686a21.916,21.916,0,0,0,7.823-6.18,81.237,81.237,0,0,1,23.01-19.324,141.134,141.134,0,0,0,12.038-8.057c5.873-4.3,11.884-8.4,18.646-11.113,10.734-4.3,18.263-12,24.217-21.593,2.689-4.331,5.627-8.513,8.3-12.853,3.452-5.6,6.976-11.162,10.06-16.958,4.235-7.961,9.474-15.069,16.862-20.253,11.21-7.859,22.388-15.828,34.07-22.945a245.027,245.027,0,0,1,55.215-25.181,24.4,24.4,0,0,0,12.4-8.534c.9-1.167,1.853-2.305,2.733-3.488,9.914-13.341,17.532-27.975,23.942-43.238a22.167,22.167,0,0,0,.9-15.788,34.435,34.435,0,0,1-.747-19.033,26.985,26.985,0,0,0,.565-8.344c-.557-5.74-1.623-11.432-2.346-17.156a24.939,24.939,0,0,0-3.928-10.867c-5.393-8.174-8.687-17.2-10.814-26.736-1.11-4.965-2.555-9.874-4.138-14.71a92.618,92.618,0,0,1-4.735-20.765c-.577-6.641-1.97-13.051-5.442-18.8a127.476,127.476,0,0,0-7.529-10.919c-3.076-4.069-6.322-8.017-9.628-11.9-4.344-5.111-8.643-10.278-13.289-15.114-6.148-6.4-11.073-13.515-13.862-21.952-2.777-8.409-5.506-16.85-7.839-25.391-6.079-22.227-9.971-44.812-10.278-67.927-.044-3.088-.2-6.176-.262-9.264a19.789,19.789,0,0,0-2.991-9.918c-1.312-2.184-2.721-4.319-4.2-6.394-9.43-13.188-20.761-24.64-32.96-35.217-4.093-3.544-9.111-5.958-14.678-5.878a34.452,34.452,0,0,1-19.049-5.482,22.362,22.362,0,0,0-7.04-2.757c-5.906-1.239-11.909-2.035-17.835-3.205a25.48,25.48,0,0,0-11.529.61,75.239,75.239,0,0,1-23.966,2.184c-8.162-.541-16.365-.509-24.536-1.033a107.8,107.8,0,0,1-17.164-2,47.729,47.729,0,0,0-27.321,1.869c-5.688,2.026-11.323,4.21-16.914,6.5-6.826,2.789-13.665,5.575-20.346,8.691-7.525,3.5-15.271,5.995-23.607,6.075-8.461.081-16.926.061-25.379-.238-25.088-.888-49.765-4.533-73.639-12.441a34.448,34.448,0,0,0-22.424.081,215.074,215.074,0,0,0-44.4,20.793c-4.634,2.789-8.461,6.858-10.076,12.2a34.235,34.235,0,0,1-10.831,16.135,25.934,25.934,0,0,0-5.288,6.471c-3.08,5.349-5.777,10.919-8.683,16.369a19.5,19.5,0,0,0-2.4,8.441,84.446,84.446,0,0,1-8.021,31.418,85.515,85.515,0,0,0-3.883,10.568c-2.273,7.48-4.86,14.863-9.022,21.484-6.075,9.672-7.625,20.192-6.951,31.3.367,6.031.533,12.07.92,18.1a102.255,102.255,0,0,0,1.239,13.22,67.45,67.45,0,0,1-3.238,37.235c-.844,2.265-1.57,4.574-2.357,6.854-9.26,26.8-21.1,52.325-37.974,75.241a32.117,32.117,0,0,0-6.725,20.579C328.673,441.258,328.637,442.873,328.637,444.483Z" transform="translate(0)" fill="#7a4417"/>
    <path id="Path_24" data-name="Path 24" d="M325.9,294.935a63.965,63.965,0,0,1,3.411-25.759,19.019,19.019,0,0,0,.044-13.8c-.65-1.659-.509-3.69-.468-5.547.166-7.654.674-15.307.6-22.953-.093-9.277,1.982-17.911,6.988-25.666,4.481-6.939,7.278-14.133,7.181-22.6-.1-9.079,2.894-17.725,5.228-26.4,3.1-11.533,6.289-23.05,9.8-34.466,1.207-3.928,3.383-7.581,5.313-11.254a10.1,10.1,0,0,1,5.853-4.957c-7.056,9.038-8.255,19.267-10.948,28.972-.537,1.938-.925,3.92-1.4,5.878-1.344,5.615-2.571,11.263-4.077,16.837-2.684,9.947-4.263,20.018-2.9,30.292,1.49,11.263-1.994,20.543-9.842,28.572a20.068,20.068,0,0,0-4.194,7.23c-3.548,10.035-4.275,20.462-3.56,31.01a9.532,9.532,0,0,0,1.159,4.214,15,15,0,0,1,1.474,12.078c-1.7,6.334-3.916,12.53-6.023,18.747C328.429,288.637,327.084,291.839,325.9,294.935Z" transform="translate(6.751 86.886)" fill="#7a4417"/>
    <path id="Path_25" data-name="Path 25" d="M330.615,417.039a90.888,90.888,0,0,1,4.134-29.444,54.32,54.32,0,0,0,1.578-7.072c1.336-7.408,4.537-13.979,8.6-20.244,2.991-4.614,5.672-9.43,8.413-14.2,2.939-5.123,5.53-10.467,8.736-15.412a48.172,48.172,0,0,0,8.15-27.826c-.351-12.873,3.149-24.842,7.654-36.4,2.975-7.634,4.517-15.219,5.89-23.183,2.111-12.264,2.588-24.54,2.971-36.884a74.192,74.192,0,0,1,4.892-24.394c3.125-8.13,6.923-16,10.395-24,2.652-6.12,5.01-12.385,7.985-18.343,1.389-2.785,3.819-5.094,5.966-7.444,3.072-3.363,6.37-6.511,9.466-9.85a67.832,67.832,0,0,1,20.668-15.065c2.781-1.336,5.692-2.442,8.364-3.968C465.213,97.173,477,93.98,488.8,90.8a29.25,29.25,0,0,1,5.155-.86c8.029-.662,16.054-1.506,24.1-1.756A53.949,53.949,0,0,1,530,89.636c9.741,1.93,19.433,4.077,29.141,6.152,2.491.533,5.01.993,7.456,1.7a47.531,47.531,0,0,0,29.367-.779c12.26-4.327,24.826-3.948,37.425-4.113,1.324-.016,2.652.545,3.976.537a98.853,98.853,0,0,0,11.585-.388c5.317-.662,10.593-1.7,15.844-2.785,4.856-1,9.668-2.22,14.484-3.407,8.074-1.99,16.042-4.586,24.216-5.918,13.531-2.2,27.054-.6,40.485,1.671,1.7.287,3.447.238,5.163.42,3.6.379,7.193,1.082,10.8,1.163,5.861.133,10.693,2.68,15.542,5.559a76.142,76.142,0,0,0,8.8,3.96,64.968,64.968,0,0,1,21.064,15.17c2.136,2.236,4.065,4.691,6.366,6.729,8.869,7.856,15.122,17.758,21.69,27.406a37.411,37.411,0,0,1,3.4,6.39c2.894,6.794,5.853,13.568,8.384,20.5a51.142,51.142,0,0,1,2.583,11.335c1.365,11.19,2.442,22.416,3.633,33.626.141,1.336.371,2.672.38,4.009.1,11.908,4.529,22.267,11.493,31.64a55.137,55.137,0,0,1,8.082,15.223c1.385,4.069,3.052,8.041,4.384,12.118a59.309,59.309,0,0,1,2.014,8.183,34.667,34.667,0,0,0,4.4,12.017c2.535,4.259,4.7,8.736,7.089,13.087,1.74,3.177,3.455,6.374,5.385,9.434,2.148,3.407,4.42,6.745,6.826,9.975,10.972,14.742,15.99,31.737,19.017,49.535,1.211,7.113,2.26,14.322,4.335,21.2,1.255,4.158.347,7.892.024,11.775-.388,4.662-1.36,9.272-1.9,13.927a68.049,68.049,0,0,1-7.44,23.215c-2.135,4.182-4.255,8.38-6.6,12.445-7.484,12.946-15.63,25.383-27.523,34.87q-4.408,3.518-8.562,7.343a55.792,55.792,0,0,1-17.112,10.4c-6.208,2.535-12.3,5.341-18.444,8.045-5.155,2.277-10.249,4.7-15.457,6.85a47.333,47.333,0,0,0-21.5,17.068c-7.246,10.641-17.56,17.62-27.434,25.218a15.624,15.624,0,0,1-3.169,1.752,31.9,31.9,0,0,0-11.331,8.832c-2.854,3.375-6.1,6.41-9.143,9.632-2.668,2.83-5.377,5.631-7.9,8.586-2.176,2.551-4.231,5.228-6.144,7.981-11.63,16.74-27.842,27.672-45.733,36.63-5.946,2.975-11.42,6.891-17.281,10.056a27.269,27.269,0,0,1-7.605,2.293c-6.176,1.227-12.361,2.5-18.6,3.3a65.572,65.572,0,0,1-22.013-.5c-4.065-.86-8.211-1.348-12.28-2.192-15.17-3.141-30.054-7.064-43.153-15.877-2.894-1.946-5.906-3.734-8.953-5.43a55.922,55.922,0,0,1-16-13.935c-3.657-4.465-7.593-8.7-11.448-12.99-4.307-4.8-8.756-9.466-12.978-14.335a46.768,46.768,0,0,0-22.279-14.654c-12.356-3.593-22.194-11.214-32.5-18.206-5.627-6.721-13.479-9.821-21.084-13.588-8.32-4.126-16.571-8.292-25.468-10.968-18.408-5.543-33.279-16.523-46.754-29.791A192.341,192.341,0,0,0,355.086,494.1c-3.367-2.64-4.925-6.136-6.891-9.507-2.091-3.581-3.742-7.42-5.845-10.988A66.263,66.263,0,0,1,334,448.618c-.605-4.388-1.465-8.744-1.917-13.144C331.446,429.343,331.087,423.187,330.615,417.039Zm8.36.953c.274,5.086.444,10.181.852,15.255.448,5.615,1.167,11.21,1.679,16.821.367,4.013.577,8.162,2.971,11.5,3.686,5.147,5.389,11.049,7.387,16.89a19.044,19.044,0,0,0,2.939,5.643c4.941,6.192,9.862,12.421,15.174,18.291,15.057,16.636,33.146,27.963,55.736,31.382a62.925,62.925,0,0,1,12.74,3.629c5.769,2.184,11.355,4.844,17.031,7.278a34.887,34.887,0,0,1,14.29,10.815A39.69,39.69,0,0,0,476,561.761c7.008,5.76,14.609,10.282,23.575,12.655A52.419,52.419,0,0,1,527.7,592.933c3.254,4.085,7.085,7.71,10.609,11.586,3.972,4.372,8.037,8.671,11.8,13.22,4.332,5.236,9.135,9.805,15.206,12.994a58.2,58.2,0,0,1,7.2,4.436c11.028,8.021,24.043,11.137,36.779,14.827,6.426,1.861,13.1,2.866,19.667,4.23,3.27.678,6.6,1.546,9.9.513,6.677-2.091,13.515-1.825,20.362-1.833a13.377,13.377,0,0,0,4.687-.981c7.872-3.076,15.848-5.954,23.518-9.482,14.2-6.536,26.949-15.211,36.4-27.926,3.669-4.937,6.531-10.467,9.858-15.667A105.569,105.569,0,0,1,740.5,588.9c3.98-4.893,8.287-9.523,12.457-14.262a35.573,35.573,0,0,1,14.746-10.2,41.78,41.78,0,0,0,7.864-4,61.38,61.38,0,0,0,19.284-18.553,52.293,52.293,0,0,1,26-20.794c4.889-1.837,9.523-4.339,14.294-6.491,5.506-2.483,10.96-5.1,16.571-7.319a50.317,50.317,0,0,0,16.736-10.2,88.357,88.357,0,0,1,7.694-6.5c10.6-8.074,17.435-19.255,24.7-30.042,3.439-5.1,6.176-10.681,9.252-16.03,1.8-3.137,3.992-6.18,4.089-9.922.19-7.1,2.333-13.7,4.573-20.325a12.545,12.545,0,0,0,.517-4.763c-.642-9.377-1.009-18.8-2.224-28.1-1.865-14.266-6.152-27.854-14.528-39.738-3.855-5.466-8.635-10.27-12.861-15.481a116.91,116.91,0,0,1-7.4-10.015c-2.987-4.618-5.615-9.466-8.493-14.161a35.754,35.754,0,0,1-5.648-18.25,24.832,24.832,0,0,0-.557-5.191c-2.26-9.612-5.288-18.892-11.953-26.542a39.016,39.016,0,0,1-3.06-4.251c-5.163-7.888-8.534-16.393-9.018-25.932-.194-3.754-.714-7.488-1.114-11.226-.92-8.538-1.946-17.068-2.749-25.617a49.929,49.929,0,0,0-4.065-16.732,106.637,106.637,0,0,1-4.134-10.056c-4.376-12.591-12.873-22.562-20.878-32.8-3.956-5.062-8.6-9.587-12.9-14.383-2.515-2.8-4.993-5.781-8.663-6.959-5.773-1.853-10.447-5.4-15.239-8.869a19.058,19.058,0,0,0-5.611-3.02c-6.959-2.022-13.951-3.964-21.015-5.567a114.705,114.705,0,0,0-32.423-2.765c-12.151.727-23.4,4.574-34.208,9.914a57.442,57.442,0,0,1-14.855,4.933c-4.614.876-9.192,1.946-13.745,3.1-6.653,1.691-13.237,1.99-19.861-.161a26,26,0,0,0-5.526-1.013c-10.011-.977-19.76-.234-29.315,3.423a52.013,52.013,0,0,1-33.239,1.542c-3.229-.9-6.544-1.494-9.83-2.18-8.8-1.837-17.629-3.544-26.4-5.506a47.076,47.076,0,0,0-14.8-1.033c-3.879.359-7.759.8-11.646.888-13.039.315-24.915,5.171-36.9,9.462-6.423,2.3-12.53,5.482-18.759,8.316-3.04,1.385-6.305,2.592-8.34,5.385-4.045,5.559-9.547,9.369-15.037,13.245a10.869,10.869,0,0,0-2.571,2.515c-8.259,11.634-15.848,23.655-21.112,37.005-5.321,13.491-7.553,27.381-5.736,41.861.852,6.79,1.752,13.588.932,20.483-.638,5.329-1.058,10.685-1.518,16.038a36.047,36.047,0,0,1-5.631,17.019A50.163,50.163,0,0,0,382.08,278c-3.193,8.061-5.268,16.361-4.42,25.161a31.848,31.848,0,0,1,0,4.432c-.347,8.154-1.986,16.034-5.906,23.232-5.325,9.789-10.455,19.732-16.514,29.061a90.93,90.93,0,0,0-12.494,29.832C340.6,399.1,338.834,408.356,338.975,417.991Z" transform="translate(21.435 20.231)" fill="#7a4417"/>
    <path id="Path_26" data-name="Path 26" d="M338.476,402.024c0-3.891-.044-7.783.02-11.67a20.406,20.406,0,0,1,.5-4.792c.287-1.1-.234-2.628,1.736-3.241.63-.194.6-2.709.759-4.174a55.389,55.389,0,0,1,7.4-22.008,246.341,246.341,0,0,0,18.94-40.84,110.166,110.166,0,0,0,6.128-24.083,136.769,136.769,0,0,1,2.539-14.27,79.618,79.618,0,0,0,1.837-15.965c.145-5.09.622-10.181,1.207-15.243a20.543,20.543,0,0,1,1.817-6.156c3.661-7.864,5.292-16.329,7.468-24.632a14.709,14.709,0,0,0,.472-4.38,74.44,74.44,0,0,1,2.281-20.745,125.311,125.311,0,0,0,2.41-14.7,47.7,47.7,0,0,1,4.945-16.914c3.718-7.145,7.161-14.492,11.5-21.254,7.706-12.022,18.028-21.233,31.56-26.461,6.765-2.616,13.483-5.345,20.289-7.848,4.239-1.558,8.5-3.447,13.224-1.788a3.1,3.1,0,0,0,1.59-.117c10.633-2.479,21.137-1.037,31.544,1.268,9.6,2.131,19.219,3.762,29.109,3.649,4.283-.048,8.578.412,12.865.727a62.59,62.59,0,0,0,15.231-.928c7.141-1.223,14.359-2.006,21.512-3.157,4.23-.682,8.425-1.6,12.591-2.612,3.912-.949,7.735-2.265,11.646-3.209a39.416,39.416,0,0,1,12.8-.8,117.07,117.07,0,0,0,13.676.093c7.129-.222,14.141-.949,20.927-3.577,3.06-1.187,6.552-1.312,9.87-1.8,5.708-.836,11.529-1.159,17.128-2.45,8.748-2.022,17.342-1.385,25.985.194,4.755.872,9.523,1.7,14.242,2.737,15.029,3.3,27.773,10.52,37.7,22.4q7.23,8.665,14.23,17.52c1.57,1.99,3.431,4.077,4.069,6.414,2.583,9.462,8.3,17.863,9.289,27.838.371,3.742,1.1,7.456,1.332,11.2.642,10.552,3.932,20.507,6.39,30.684a111.133,111.133,0,0,0,12.453,31.273,13.157,13.157,0,0,1,.892,1.8,128.784,128.784,0,0,0,15.5,27.692c3.367,4.594,5.062,9.935,6.608,15.441,2.927,10.447,6.128,20.83,12.906,29.715,2.487,3.262,4.121,7.2,6.007,10.9,2.8,5.5,5.22,11.206,8.271,16.559,4.525,7.928,5.926,16.627,7.141,25.424.384,2.793.517,5.631,1.058,8.392,2.2,11.287.408,22.271-2.878,33-1.433,4.679-3.968,9.095-6.487,13.346-3.762,6.354-7.872,12.506-12,18.634-1.639,2.43-3.282,5.349-5.684,6.681-5.805,3.233-9.458,8.99-15.2,12.139-5.76,3.157-11.477,6.447-17.443,9.176-8.207,3.754-16.24,7.694-23.506,13.136-3.54,2.652-7.391,4.893-11.166,7.214a61.287,61.287,0,0,0-11.589,9.3c-5.652,5.74-11.589,11.2-17.31,16.874-2.374,2.357-4.594,4.889-6.733,7.464-2.656,3.205-4.929,6.758-7.787,9.757a48.039,48.039,0,0,1-9.418,8.082c-7.29,4.432-13.6,10.064-20.111,15.445-1.522,1.255-2.543,3.1-3.871,4.614-3.359,3.819-6.636,7.727-10.177,11.376-4.578,4.715-9.482,9.119-14.06,13.838a49.325,49.325,0,0,1-13.479,10.1c-7.093,3.528-14.137,7.206-21.443,10.241a74.25,74.25,0,0,1-13.939,3.742,61.01,61.01,0,0,1-30.252-1.627c-6.285-1.926-12.736-3.3-19.058-5.131-2.684-.775-5.841-1.445-7.7-3.27-5.135-5.046-12.462-6.616-17.463-11.719-5.074-5.179-10.475-10.06-15.251-15.493-5.732-6.527-12.659-11.573-19.215-17.124-9.184-7.771-18.751-14.8-29.981-19.332a9.447,9.447,0,0,1-1.429-.747,139.647,139.647,0,0,0-30.284-13.931c-5.03-1.619-9.155-4.864-13.366-8.065-6.5-4.949-13.467-9.293-20.277-13.834a9.864,9.864,0,0,0-2.983-1.187,72.046,72.046,0,0,1-18.678-8.376,128.4,128.4,0,0,0-12.853-6.685A50.993,50.993,0,0,1,371.134,470.9c-5.329-5.494-10.944-10.77-15.8-16.664-10.035-12.171-15.594-26.207-15.828-42.148-.048-3.355-.008-6.709-.008-10.064ZM487.118,104.53c-13.636,1.284-25.73,2.018-36.262,9.071a27.15,27.15,0,0,1-5.736,2.927c-8.037,2.931-14.379,8.207-20.321,14.141a47.612,47.612,0,0,0-9.426,12.478c-3.209,6.5-6.443,12.99-9.591,19.522a41.168,41.168,0,0,0-3.613,13.551,115.14,115.14,0,0,1-1.885,12.336c-1.691,7.621-3.35,15.215-2.781,23.1a8.58,8.58,0,0,1-.21,2.8c-2.176,8.029-3.851,16.256-6.8,23.995a53.988,53.988,0,0,0-3.67,19.6,118.939,118.939,0,0,1-1.021,16.442c-1.219,8.631-2.753,17.233-4.549,25.763a88.013,88.013,0,0,1-4.279,13.773c-1.95,4.993-4.328,9.826-6.677,14.654-2.7,5.546-5.474,11.061-8.388,16.5-2.22,4.142-4.594,8.207-7.088,12.187-7.666,12.227-10.015,25.92-11.206,39.944a13.4,13.4,0,0,0,.351,3.181c1.114,7.024,2.164,14.064,3.419,21.064a44.88,44.88,0,0,0,2.261,8.1c1.2,3.124,2.753,6.12,4.2,9.147a42.255,42.255,0,0,0,8.489,12.163c4.7,4.606,9.43,9.188,14.1,13.826a48.107,48.107,0,0,0,13.543,9.3c5.086,2.414,10.132,4.957,14.988,7.8a64.418,64.418,0,0,0,15.78,6.988,14.583,14.583,0,0,1,4.1,1.647c6.778,4.352,13.951,8.247,20.083,13.386A57.393,57.393,0,0,0,465.4,514.658a84.82,84.82,0,0,1,12.655,5.127q11.88,5.946,23.462,12.474a62.22,62.22,0,0,1,10.875,7.533c12.615,11.279,25.064,22.751,35.855,35.867.593.723,1.3,1.356,1.938,2.051a68.468,68.468,0,0,0,22.154,15.812c2.2,1.005,4.315,2.232,6.592,3.011a67.432,67.432,0,0,0,9.24,2.535c4.876.928,9.793,1.679,14.718,2.277a89.229,89.229,0,0,0,12.389.9,56.435,56.435,0,0,0,11.166-1.474A57.346,57.346,0,0,0,637.92,597.2c6.451-2.979,12.651-6.5,18.973-9.773a47.228,47.228,0,0,0,12.373-9.547c4.364-4.553,9.083-8.76,13.491-13.269,3.27-3.351,6.314-6.919,9.414-10.431,1.51-1.708,2.692-3.766,4.4-5.211,7.088-5.954,13.963-12.167,22-16.938a34.557,34.557,0,0,0,7.472-6.637c2.249-2.47,3.96-5.421,6.063-8.037a114.135,114.135,0,0,1,7.847-9.159c6.35-6.37,12.8-12.643,19.409-18.747a64.948,64.948,0,0,1,9.85-7.6c6.16-3.811,12.449-7.46,18.916-10.718,8.385-4.227,16.926-8.154,25.525-11.929a76.859,76.859,0,0,0,27.777-20.22c1.143-1.32,2.458-2.5,3.516-3.879a40.644,40.644,0,0,0,3.815-5.615c3.137-5.93,6.2-11.9,9.111-17.947a46.472,46.472,0,0,0,3.064-8.271c.884-3.367,1.336-6.846,1.982-10.278a42.3,42.3,0,0,0,.113-14.835c-1.106-6.62-2.329-13.22-3.407-19.845a46.055,46.055,0,0,0-5.2-14.31c-2.781-5.2-5.478-10.467-7.876-15.856a65.04,65.04,0,0,0-8.041-13.9,21.047,21.047,0,0,1-3.149-5.127c-3.395-8.606-7.234-17.035-9.252-26.162-.735-3.322-2.535-6.483-4.259-9.482-1.663-2.894-4-5.393-5.781-8.235-2.487-3.968-4.88-8.017-7.032-12.171-2.592-5.006-4.61-10.318-7.379-15.211a71.647,71.647,0,0,1-8.953-25.254c-1.328-9.151-3.516-18.178-4.945-27.317-1.138-7.29-1.276-14.746-2.612-21.988-2.83-15.356-8.824-29.21-20.753-39.932a88.012,88.012,0,0,1-6.523-6.58,58.359,58.359,0,0,0-33.517-18.61c-13.572-2.511-27.087-4.78-41.094-1.4-10.233,2.467-21.1,2.059-31.111,6.043a2.4,2.4,0,0,1-.787.174c-9.248.3-18.5.561-27.749.9a70.7,70.7,0,0,0-10.354.775c-3.407.638-6.644,2.131-10.027,2.971-4.8,1.191-9.644,2.285-14.516,3.124-5.155.888-10.423,1.167-15.55,2.18a85.145,85.145,0,0,1-27.995.953c-13.18-1.736-26.368-3.132-39.33-6.322C499.237,105.951,492.374,105.358,487.118,104.53Z" transform="translate(45.299 41.793)" fill="#7a4417"/>
    <path id="Path_27" data-name="Path 27" d="M485.42,100.565A109.03,109.03,0,0,1,515.41,103.5a43.167,43.167,0,0,1,11.634,4.267c5.882,3.484,11.953,3.932,18.262,2.547,4.84-1.062,9.579-2.632,14.3-4.17a112.652,112.652,0,0,1,27.938-5.724c4.549-.287,9.075-1.009,13.616-1.481,8.065-.84,16.175-1.146,23.954,1.494,17.81,6.047,35.657,5.3,53.632,1.017,6.923-1.647,13.87-3.205,20.858-4.529a54.533,54.533,0,0,1,9.612-.719c7.145-.073,12.684,3.225,16.724,8.905a41.5,41.5,0,0,1,4.554,8.489,112.1,112.1,0,0,0,12.159,22.671c3.9,5.538,6.321,11.569,5.336,18.513a47.1,47.1,0,0,1-1.449,6.669,70.513,70.513,0,0,1-2.781,7.985c-3.016,7.04-1.534,13.192,3.69,18.46a84.362,84.362,0,0,0,10.77,9.664c13.414,9.527,22.323,22.291,28.007,37.522,2.818,7.545,5.668,15.081,8.4,22.658a113.006,113.006,0,0,1,6.479,34.317,68.527,68.527,0,0,0,11.452,35.612c8.3,12.591,8.211,25.125,2.023,38.2a71.4,71.4,0,0,1-13.443,19,28.827,28.827,0,0,1-14.71,7.88c-2.353.545-4.707,1.11-7.084,1.526-9.7,1.707-17.54,6.669-23.849,14-7.969,9.264-15.82,18.642-23.457,28.181-5.918,7.391-12.26,14.262-20.164,19.554a77.266,77.266,0,0,1-7.581,4.562c-4.868,2.5-9.232,5.651-12.352,10.128-5.143,7.371-9.971,14.96-14.952,22.444-4.836,7.262-9.462,14.674-14.609,21.706-5.91,8.065-13.313,14.742-21.31,20.725a50.2,50.2,0,0,1-6.459,4.089c-6.277,3.351-12.635,6.544-18.932,9.85a17.417,17.417,0,0,1-9.276,2.232c-4.691-.274-9.4-.436-14.072-.9a22.543,22.543,0,0,1-10.859-4,60.579,60.579,0,0,1-6.972-5.454,54.4,54.4,0,0,0-19.708-12.231,56.676,56.676,0,0,1-20.022-12.482,88.019,88.019,0,0,0-8.106-6.628,40.746,40.746,0,0,1-13.636-17.621c-1.764-4.21-3.577-8.4-5.337-12.611a25.616,25.616,0,0,0-13.451-13.769,79.912,79.912,0,0,0-31.85-7.811c-9.938-.258-19.881-.355-29.819-.561a66.921,66.921,0,0,1-30.2-7.617c-12-6.322-23.942-12.752-35.891-19.171-8.409-4.517-13.983-11.67-17.931-20.1a27.292,27.292,0,0,1-2.071-8.913c-.46-4.941-.436-9.922-.634-14.884a7.4,7.4,0,0,0-.274-1.986c-1.881-5.631-1.7-11.327-.86-17.12,2.043-14.028,7.27-26.639,16.446-37.5,5.546-6.568,11.42-12.869,16.825-19.546,3.96-4.893,7.48-10.144,11.037-15.348a9.318,9.318,0,0,0,.456-10.29c-3.855-7.189-3.981-14.94-3.149-22.788.323-3.072.8-6.124,1.259-9.18,1.215-8.045.63-16.062-.174-24.1-1.966-19.663,1.4-38.3,11.513-55.437,7.028-11.913,14.4-23.627,21.564-35.459,2.923-4.824,6.011-9.575,8.522-14.609,4.4-8.808,11.4-14.375,20.361-17.915,9.789-3.867,20.006-5.01,30.409-5.139C481.658,100.544,483.539,100.565,485.42,100.565Zm-1.2,8.518c-3.714,0-8.3-.246-12.845.052a61.271,61.271,0,0,0-25.823,7.085,22.067,22.067,0,0,0-8.82,8.586q-13.86,24.324-27.817,48.6c-9.628,16.829-12.607,35.1-10.544,54.073a127.844,127.844,0,0,1-.706,34.095c-.961,6.112-1.227,12.353.892,18.343a20.809,20.809,0,0,1-2.293,19.276c-4.15,6.249-8.6,12.332-13.342,18.145-5.6,6.867-11.707,13.321-17.5,20.034a71.152,71.152,0,0,0-10.911,17.33,17.19,17.19,0,0,0-1.429,9.39,59.134,59.134,0,0,1,.577,9.236c-.275,6.56-.751,13.115-1.352,19.655-.44,4.828.016,9.5,2.567,13.616,3.706,5.982,8.154,11.372,14.548,14.75,13.059,6.907,26.1,13.85,39.209,20.652a53.763,53.763,0,0,0,23.252,5.882c9.535.323,19.07.573,28.6.82a92.766,92.766,0,0,1,38.85,9.385,33.456,33.456,0,0,1,16.507,16.93c1.853,4.17,3.7,8.348,5.409,12.579a33.8,33.8,0,0,0,11.521,15.2,99.792,99.792,0,0,1,8.683,7.189,48.163,48.163,0,0,0,16.627,10.371,62.536,62.536,0,0,1,22.493,13.83,38.495,38.495,0,0,0,4.356,3.581c7.694,5.369,16.26,4.424,24.83,3.29a3.424,3.424,0,0,0,1.09-.509c6.725-3.649,13.608-7.044,20.131-11.029a83.839,83.839,0,0,0,23.353-21.4c5.147-6.858,9.6-14.238,14.4-21.358,4.65-6.9,9.167-13.9,14.08-20.616a45.051,45.051,0,0,1,19.332-15.352,35.977,35.977,0,0,0,6.556-3.912c5.781-4.029,10.451-9.2,15.017-14.524,8.833-10.3,17.758-20.519,26.873-30.566a47.839,47.839,0,0,1,26.828-15.328c2.24-.432,4.448-1.029,6.685-1.486a21.656,21.656,0,0,0,12.481-7.605,60.933,60.933,0,0,0,12.437-24.16c1.542-5.91.735-11.464-3.217-16.357a34.791,34.791,0,0,1-2.378-3.254c-6.77-10.661-11.727-21.992-12.95-34.745-.783-8.15-1.292-16.369-2.785-24.4-2.414-12.978-7.339-25.238-12.082-37.522-4.7-12.167-11.763-22.582-22.105-30.675a43.31,43.31,0,0,1-4.844-4.247,148.6,148.6,0,0,1-10.233-11.355,21.819,21.819,0,0,1-3.5-21.334c1.037-3.048,2.1-6.1,3.29-9.087,2.805-7,2.341-13.535-2.027-19.881a118.51,118.51,0,0,1-11.763-22.893,42.2,42.2,0,0,0-3.908-7.476,12.144,12.144,0,0,0-10.867-5.825,50.543,50.543,0,0,0-9.184.888c-5.9,1.28-11.739,2.866-17.576,4.416-19.893,5.28-39.742,6.176-59.555-.416-7.323-2.434-14.839-2.051-22.36-1.255-4.008.424-8,1.005-12.017,1.276a97.1,97.1,0,0,0-22.162,3.9c-6.41,1.982-12.857,3.924-19.4,5.353-8.364,1.833-16.474,1.183-24.12-3.415a33.134,33.134,0,0,0-9.414-3.338A97.117,97.117,0,0,0,484.221,109.082Z" transform="translate(62.417 70.69)" fill="#7a4417"/>
    <path id="Path_28" data-name="Path 28" d="M474.07,110.793c2.951-.165,5.9-.311,8.853-.5a16.86,16.86,0,0,1,10.782,2.5,17.873,17.873,0,0,0,10.354,2.785,23.965,23.965,0,0,1,18.137,7.3c8.663,8.764,19.389,9.781,30.7,7.412,13.491-2.826,26.057-8.3,38.45-14.205a81.581,81.581,0,0,1,13.018-5.28,41.377,41.377,0,0,1,23.094.089c13.612,4.029,27.123,2.7,40.594-.6A33.049,33.049,0,0,0,674,107.883c2.672-1.251,5.236-2.749,7.94-3.92a14.02,14.02,0,0,1,13.511.771c1.724,1.046,3.577,1.869,5.308,2.894,5.389,3.185,6.451,6.749,3.213,12.062a52.748,52.748,0,0,0-7.492,24.414c-.811,12.474,2.414,23.688,11.234,32.92a64.278,64.278,0,0,1,11.049,14.807,15.223,15.223,0,0,0,8.534,7.585,35.134,35.134,0,0,1,19.118,16.458,59.567,59.567,0,0,0,3.258,5.09,35.816,35.816,0,0,1,6.548,20.014c.262,8.881,3.6,17.023,5.756,25.448a11.014,11.014,0,0,0,2.362,4.166c5.014,5.886,4.8,12.219,1.9,18.86-1.292,2.951-2.692,5.861-3.843,8.869a38.638,38.638,0,0,0-1.885,6.568c-.836,4.384-.363,8.421,2.765,12.074a55.7,55.7,0,0,1,6.079,8.994c4.937,8.764,2.6,18.133-5.978,23.381a38.96,38.96,0,0,1-10.564,4.8c-10,2.511-18.254,7.767-25.327,14.984-4.121,4.214-7.924,8.76-11.662,13.329a34.839,34.839,0,0,1-10.81,8.837c-11.194,5.95-20.874,13.588-27.087,25.064-2.616,4.828-5.813,9.353-8.881,13.927a29.619,29.619,0,0,1-18.412,12.752,90.01,90.01,0,0,0-12.579,4.206,20.225,20.225,0,0,0-12.013,12.3,66.9,66.9,0,0,1-10.685,18.392,64.2,64.2,0,0,1-6.8,7.4,18.427,18.427,0,0,1-15.11,5.272,15.983,15.983,0,0,0-9.765,1.76c-8.994,4.99-17.213,1.546-25.3-2.3-3.092-1.473-5.078-4.424-6.548-7.476-2.951-6.108-7.1-11.335-11.182-16.688a59.214,59.214,0,0,1-7.339-12.889c-2.971-7.06-6.661-13.333-12.748-18.258a122.607,122.607,0,0,1-11.747-11.61c-4.223-4.489-9.176-6.814-15.416-6.4a67.176,67.176,0,0,1-16.817-1.28,28.854,28.854,0,0,0-9.975.1,18.07,18.07,0,0,1-15.053-3.976c-3.916-3.112-8.057-5.9-13.071-6.887-10.052-1.982-20.164-3.322-30.405-1.526a27.951,27.951,0,0,1-15.788-1.594,74.608,74.608,0,0,0-12.3-3.738A23.882,23.882,0,0,1,366,389.678c-3.246-3.98-6.943-7.076-11.86-8.594-3.79-1.171-5.316-4.162-5.563-7.646-.775-11-1.28-22.025,1.623-32.851a24.125,24.125,0,0,1,8.833-13.087A116.569,116.569,0,0,0,392.1,286.946c1.966-3.972,3.71-8.057,5.748-11.989a25.146,25.146,0,0,0,2.6-14.468c-.884-8.618-.279-17.18.678-25.734.876-7.811.848-15.521-1.53-23.135-2.838-9.075-2.156-17.964,1.421-26.784,4.977-12.292,11.081-23.869,19.958-33.844,1.074-1.2,2.047-2.491,3.092-3.718a17.947,17.947,0,0,0,4.194-9,24.815,24.815,0,0,1,9.172-15.63c2.394-1.95,4.82-3.871,7.359-5.627A33.179,33.179,0,0,1,466,110.684c2.681.149,5.373.024,8.062.024ZM354.719,375.848c7.06,1.1,11.783,5.26,15.921,10.451a17.783,17.783,0,0,0,9.474,5.789c5.672,1.595,11.315,3.318,16.894,5.212a16.081,16.081,0,0,0,8.7.864c7.609-1.655,15.211-1.146,22.86-.412,9.979.957,19.255,3.56,27.006,10.306a11.269,11.269,0,0,0,10.161,2.555,34.712,34.712,0,0,1,15.558.593,30.554,30.554,0,0,0,7.206.42c3.088-.012,6.176-.279,9.26-.307a30.861,30.861,0,0,1,18.561,5.724c4.489,3.189,8.828,6.584,13.192,9.943a36.068,36.068,0,0,1,12.494,17.895c1.122,3.443,2,7.04,3.641,10.233,4.477,8.707,9.066,17.338,12.97,26.344,2.265,5.211,12.635,9.289,18.129,7.827a17.239,17.239,0,0,0,2.971-1.223c1.332-.638,2.632-1.348,3.94-2.03a14.716,14.716,0,0,1,8.958-1.784c5,.719,8.95-1.138,12.365-4.5a55.821,55.821,0,0,0,4.582-5.086,66.972,66.972,0,0,0,10.5-17.572c2.9-7.609,8.352-12.692,15.715-15.852,2.22-.953,4.489-1.792,6.745-2.64,2.515-.949,5.03-1.885,7.569-2.761a26.427,26.427,0,0,0,14.08-11.473c3.052-4.9,6.164-9.769,9.151-14.714a47.553,47.553,0,0,1,9.284-11.586c4.868-4.227,9.834-8.344,14.633-12.647,3.69-3.306,7.387-6.649,10.734-10.3A67.487,67.487,0,0,1,725.4,360.948c4.84-2.624,9.636-5.349,14.605-7.714a58.667,58.667,0,0,1,10.181-3.7,38.664,38.664,0,0,0,11.618-5.409,9.032,9.032,0,0,0,4.186-7.811,14.485,14.485,0,0,0-1.922-8.114c-1.461-2.414-2.822-4.893-4.416-7.218a19.152,19.152,0,0,1-2.693-16.543c1.4-5.171,3.1-10.274,4.9-15.324s.823-9.224-2.507-13.454c-7.767-9.862-13.423-20.693-13.681-33.687A29.907,29.907,0,0,0,740.764,226a60.44,60.44,0,0,1-3.819-6.632,26.815,26.815,0,0,0-12.139-12.474,22.23,22.23,0,0,1-10.415-11.351A63.077,63.077,0,0,0,703.617,179.1a42.217,42.217,0,0,1-8.521-14.952c-4.973-15.764-3.137-30.748,5.046-45.03.779-1.356,1.469-2.765,2.353-4.44-3.221-1.6-6.136-2.9-8.909-4.465a7.352,7.352,0,0,0-7.993.165c-1.033.626-2.132,1.15-3.137,1.821a48.246,48.246,0,0,1-18.27,7.04c-12.6,2.341-25.077,3.007-37.368-1.465-9.959-3.625-19.542-2.466-28.859,2.164-4.808,2.394-9.523,4.977-14.355,7.319-9.329,4.525-18.912,8.417-29.149,10.358-14.113,2.68-27.058.67-37.623-10.015a15.992,15.992,0,0,0-11.925-4.9,24.464,24.464,0,0,1-13.818-3.71,12.145,12.145,0,0,0-7.638-1.921c-5.9.274-11.812.614-17.713.517a25.744,25.744,0,0,0-15.251,4.279c-3.112,2.1-6.136,4.348-9.03,6.737-2.858,2.357-5.115,5.389-5.627,9.079-1,7.177-4.816,12.684-9.5,17.83-8.8,9.664-15.017,20.886-19.885,32.94-2.781,6.887-3.431,13.866-.828,20.838,3.294,8.8,3.379,17.786,2.85,27-.432,7.48.012,15.013.161,22.521.117,5.76.993,11.578-1.356,17.116-5.413,12.76-11.23,25.274-20.329,35.984-7.319,8.614-14.553,17.261-24.124,23.571-3.048,2.01-4.695,5.123-5.688,8.554C354.146,354.392,354.638,364.993,354.719,375.848Z" transform="translate(74.199 90.119)" fill="#7a4417"/>
    <path id="Path_29" data-name="Path 29" d="M722.064,307.1a30.55,30.55,0,0,0-20.164,6.511c-7.541,5.708-14.512,11.945-20.24,19.518a136.143,136.143,0,0,1-29.646,28.823,88.937,88.937,0,0,0-20.3,20.01,55.445,55.445,0,0,1-11.973,11.868c-2.482,1.841-4.909,3.766-7.214,5.817a75.384,75.384,0,0,1-17.5,12.139,20.542,20.542,0,0,0-10.766,11.929,26.973,26.973,0,0,1-2.281,5.143,22.172,22.172,0,0,1-4.489,5.583,63.083,63.083,0,0,1-9.454,6.124c-5.765,3.08-10.956,1.7-14.044-4.037a75.4,75.4,0,0,1-4.727-11.937c-2.168-6.487-3.96-13.1-6.168-19.574a62.218,62.218,0,0,0-4.069-8.744c-2.886-5.486-7.165-9.3-13.346-10.8a25.392,25.392,0,0,1-11.448-6.483,38.387,38.387,0,0,0-14.452-8.518c-4.2-1.4-8.312-3.088-12.373-4.856a31.366,31.366,0,0,0-19.732-1.728c-8.037,1.768-15.937,1.784-23.841-.86-3.294-1.1-6.81-1.514-10.2-2.345-6.511-1.594-13.063-3.084-19.494-4.961-4.759-1.389-9.184-1.59-13.543,1.134-9.24,5.777-18.355,4.566-27.466-.492-3.742-2.079-7.714-3.738-11.549-5.656a53.737,53.737,0,0,1-6.9-3.819c-.8-.561-1.159-2.071-1.288-3.2a22.883,22.883,0,0,1,3.9-15.324,109.956,109.956,0,0,1,10.54-13.685,132.093,132.093,0,0,1,23.3-19.792,37.942,37.942,0,0,0,11.436-11.735q6.013-10.009,11.864-20.115a9.943,9.943,0,0,0,.4-9.317c-5.942-13.624-4.384-27,1.26-40.255,1.736-4.077,3.536-8.126,5.288-12.2a21.977,21.977,0,0,0,.234-17.617,89.362,89.362,0,0,1-5.817-20.491c-1.227-8.445.464-15.9,6.289-22.44a129.549,129.549,0,0,1,22.186-19.207,21.7,21.7,0,0,1,19.142-3.379,22.156,22.156,0,0,0,7.181.767c6.346-.436,11.162,1.946,15.041,6.879,4,5.086,9.454,7.339,15.881,7.343.537,0,1.074.073,1.611.052a44.911,44.911,0,0,1,21.48,4.444c5.841,2.814,11.941,2.919,18.109,1.364a75.294,75.294,0,0,0,8.457-2.616c18.557-7.1,37.118-14.2,55.6-21.492a43.738,43.738,0,0,1,16.038-3.27c7.379-.044,14.754-.646,22.138-.92a59.592,59.592,0,0,1,7.642.161c3.585.331,5.216,2.119,5.369,5.8a28.618,28.618,0,0,1-.355,5.211c-.335,2.39-.791,4.767-1.268,7.137-1.845,9.172,1.679,16.3,8.485,22.113,2.139,1.829,4.473,3.435,6.729,5.131,2.147,1.611,4.364,3.137,6.455,4.82a25.872,25.872,0,0,1,8.594,12.425c3.544,11.1,9.079,21.133,15.493,30.817,3.54,5.341,6.2,11.279,9.075,17.039,2.216,4.445,3.887,9.168,6.237,13.527,3.892,7.222,4.634,14.855,3.314,22.691-.7,4.138.266,7.452,2.176,11.081,3.746,7.113,7,14.5,10.237,21.863,1.5,3.407,1.272,7.137.6,10.726-.67,3.56-3.1,5.571-6.738,5.849C725.4,307.208,723.783,307.1,722.064,307.1Zm5.26-6.491c-.561-2.212-.711-4.126-1.51-5.712-3.924-7.783-6.923-16.054-12.131-23.163a19.2,19.2,0,0,1-3.5-12.946c.137-2.281.25-4.562.4-6.838a24.345,24.345,0,0,0-2.636-12.445c-1.808-3.738-3.116-7.714-4.735-11.545-3.6-8.526-7.323-17-10.875-25.545-3.71-8.913-7.371-17.847-10.863-26.845a23.219,23.219,0,0,0-7.262-10.427c-2.547-1.974-5.308-3.69-7.751-5.781a98.633,98.633,0,0,1-10.274-9.567,22.182,22.182,0,0,1-5.51-17.564c.351-3.2.985-6.362,1.425-9.547.271-1.938.408-3.891.658-6.342-2.051.408-3.459.694-4.868.973-6.059,1.191-12.078,3.032-18.186,3.411-9.365.581-18.331,2.176-26.808,6.245a18.145,18.145,0,0,1-2.281.8c-16.454,5.377-32.9,10.8-49.382,16.1-6.3,2.026-12.785,3.6-19.4,2.039a69.206,69.206,0,0,1-11.735-4.089,33.878,33.878,0,0,0-14.807-3.262,50.379,50.379,0,0,1-5.236-.121c-7.185-.525-13.212-3.334-17.677-9.139-.658-.856-1.36-1.671-1.982-2.547a9.894,9.894,0,0,0-8.239-4.259,43.484,43.484,0,0,1-9.176-1.07,18.388,18.388,0,0,0-15.723,2.793,87.154,87.154,0,0,0-21.326,20.628,13.721,13.721,0,0,0-2.685,11.041,77.073,77.073,0,0,0,2.39,10.148c1.679,4.953,3.758,9.773,5.7,14.637a27.489,27.489,0,0,1-1.1,23.389c-2.22,4.444-4.566,8.828-6.976,13.172-6.035,10.887-7.222,22.057-2.188,33.651a17.2,17.2,0,0,1-.557,15.546c-2.7,5.1-5.546,10.124-8.453,15.106-4.275,7.335-10.387,12.853-17.16,17.883-7.537,5.6-14.9,11.477-21.9,17.725a108.189,108.189,0,0,0-12.425,13.7,28.73,28.73,0,0,0-4.214,8.582c-1.34,3.932-.222,5.316,3.762,6.261,5.595,1.324,11.287,2.426,16.684,4.34,7.638,2.7,14.75,3.241,21.944-1.348,5.03-3.213,10.633-3.04,16.349-1.486,7.892,2.144,15.877,3.944,23.821,5.9a71.415,71.415,0,0,1,8.171,2.131,37.258,37.258,0,0,0,19.837,1.627,33.542,33.542,0,0,1,19.659,2.676c6.378,2.838,12.849,5.494,19.082,8.618a31.049,31.049,0,0,1,8.784,6.213,33.923,33.923,0,0,0,13.749,9.486,21.849,21.849,0,0,1,11.957,10.294c5.837,10.27,11.775,20.491,15.582,31.773a33.165,33.165,0,0,0,3.254,6.887c1.6,2.571,3.326,2.818,5.732.969,5.1-3.912,10.1-7.734,12.187-14.46A22.651,22.651,0,0,1,587.76,405.77a82.272,82.272,0,0,0,16.7-12.55,59.819,59.819,0,0,1,6.475-5.446,77.155,77.155,0,0,0,15.586-15.053,74.619,74.619,0,0,1,20.583-17.9,109.422,109.422,0,0,0,30.845-26.17c5.28-6.5,11.6-11.888,18.036-17.217a41.649,41.649,0,0,1,26.191-9.991A41.012,41.012,0,0,0,727.324,300.612Z" transform="translate(90.231 114.56)" fill="#7a4417"/>
    <path id="Path_30" data-name="Path 30" d="M361.533,322.948a27.965,27.965,0,0,0-1.195-4.4,5.689,5.689,0,0,1,.654-6.418c2.208-2.693,4.521-5.3,6.826-7.9.617-.7,1.461-1.2,2.067-1.913,9.288-10.883,21.044-18.678,32.9-26.348,6.088-3.936,12.248-7.767,18.258-11.828a93.293,93.293,0,0,0,7.844-6.289,6.657,6.657,0,0,0,2.382-6.112c-.521-5.086-1.005-10.189-3.419-14.823-3.665-7.032-3.625-14.476-2.531-22.025.44-3.056,1.223-6.059,1.663-9.111a38.3,38.3,0,0,0-1-15.937c-2.765-9.955-5.111-20.022-7.742-30.017a13.368,13.368,0,0,1,1.171-10.128,64.823,64.823,0,0,0,6.435-16.406c1.97-8.618,13.967-15.638,22.5-13.572a12.867,12.867,0,0,1,5.155,2.923,40.972,40.972,0,0,1,5.062,5.72,53.187,53.187,0,0,0,15,13.277c6.116,3.637,12.268,7.214,18.412,10.806a32.311,32.311,0,0,0,16.934,4.218,76.037,76.037,0,0,0,41.175-12.03c6.237-3.92,12.922-7.125,19.32-10.8,3.952-2.273,7.739-4.836,11.614-7.246,3.988-2.479,7.884-5.139,12.038-7.3a24.261,24.261,0,0,1,7.641-2.236c3.447-.5,6.144,1.09,8.388,3.787a71.021,71.021,0,0,0,7.932,8.5,21.639,21.639,0,0,1,7.908,16.938c.032,3.088.129,6.18.1,9.268a20.615,20.615,0,0,0,2.878,11.182,86.1,86.1,0,0,0,8.348,11.8,18.434,18.434,0,0,0,7.581,5.078c8.4,2.834,13.681,7.928,15.11,16.975.686,4.319,3.274,7.928,6.6,10.831a26.011,26.011,0,0,1,6.031,8.441,45.31,45.31,0,0,0,5.086,7.67,31.806,31.806,0,0,1,7.121,21.314,19.3,19.3,0,0,1-1.889,7.69,40.808,40.808,0,0,1-15.517,17.059c-2.757,1.667-5.591,3.2-8.38,4.816-4.876,2.83-9.773,5.623-14.605,8.53a26.507,26.507,0,0,0-9.821,10.439q-3.034,5.686-6.112,11.347a45.554,45.554,0,0,1-16.846,17.479,140.3,140.3,0,0,1-28.015,13.18c-10.54,3.544-17.241,10.415-21.145,20.535-1.595,4.126-3.4,8.179-5.252,12.2a17.168,17.168,0,0,1-2.955,4.735c-3.371,3.5-7.944,2.971-10.556-1.086A33.91,33.91,0,0,1,540.3,371.1c-3.6-8.207-8.958-15.263-14.581-22.134a26.643,26.643,0,0,0-9.414-7.44,102.943,102.943,0,0,1-21.839-13.592c-8.162-6.661-17.624-8.865-27.866-8.433a34.935,34.935,0,0,0-6.689,1.288c-2.345.569-4.646,1.32-6.967,1.974a15.3,15.3,0,0,1-12.377-1.913c-1.966-1.163-3.855-2.446-5.78-3.673A24.993,24.993,0,0,0,421.108,313c-5.1.012-10.2.129-15.307.262a24.042,24.042,0,0,0-12.514,3.972,46.972,46.972,0,0,1-6.261,3.641,30.216,30.216,0,0,1-6.487,1.917c-3.419.67-6.879,1.118-10.33,1.6-2.156.3-4.239.335-6.132-1.179C363.52,322.771,362.413,323.017,361.533,322.948Zm187.5,45.317c.513-.872,1.094-1.752,1.562-2.684q3.433-6.842,6.81-13.709c4.1-8.3,10.193-14.391,19.037-17.572a92.6,92.6,0,0,0,9.321-3.8c7.355-3.585,14.706-7.19,21.9-11.077a34.91,34.91,0,0,0,13.487-13.555c1.687-2.9,3.387-5.809,4.86-8.82a40.129,40.129,0,0,1,17.229-18.065c4.594-2.515,9.1-5.191,13.628-7.815,2.325-1.348,4.662-2.676,6.915-4.138a25.754,25.754,0,0,0,9.047-9.555,7.3,7.3,0,0,0,1.126-3.742c-.823-8.166-1.7-16.313-7.6-22.872a16.659,16.659,0,0,1-3.9-9.955,11.854,11.854,0,0,0-2.1-5.918,41.72,41.72,0,0,1-8.134-17.342,8.923,8.923,0,0,0-5.8-6.713,54.258,54.258,0,0,1-6.568-3.06,28.389,28.389,0,0,1-6.249-4.335,53.02,53.02,0,0,1-11.359-16.494,24.523,24.523,0,0,1-2.132-10.572c.166-4.158.367-8.32.46-12.482s-.767-8.09-3.952-11.037c-2.951-2.737-6.1-5.26-9.155-7.88-2.031-1.736-4.025-1.647-6.237-.2-5.389,3.532-10.843,6.971-16.3,10.4-3.524,2.216-7.016,4.5-10.665,6.487-7.537,4.117-15.1,8.2-22.788,12.034a154.1,154.1,0,0,1-15.473,6.749c-8.635,3.177-17.669,2.781-26.7,2.5a38.963,38.963,0,0,1-19.494-5.647q-9.8-5.982-19.477-12.171a60.622,60.622,0,0,1-15.416-14.048,28.421,28.421,0,0,0-4.013-4.493,8.079,8.079,0,0,0-3.9-1.732c-4.9-.678-15.332,5.361-15.776,11.977-.206,3.1-1.768,6.148-2.959,9.127-.892,2.232-2.156,4.319-3.27,6.467a5.871,5.871,0,0,0-.335,5.026c3.593,9.834,6.883,19.78,10.718,29.513a38.2,38.2,0,0,1,2.454,20.123c-.359,2.386-.908,4.743-1.393,7.113-1.344,6.552-1.441,12.942.912,19.417,4.541,12.478,1.021,23.736-9.511,31.693-2.144,1.619-4.324,3.2-6.588,4.638-5.446,3.451-11.061,6.645-16.405,10.237-8.239,5.539-16.317,11.323-24.459,17.007-6.2,4.331-10.161,10.609-14.423,16.623-.767,1.086-1.255,2.3-.178,3.25a3.544,3.544,0,0,0,2.781.815c7.274-2.152,14.993-2.858,21.419-7.674a25.993,25.993,0,0,1,15.1-4.961c4.162-.117,8.324-.242,12.478-.5a36.476,36.476,0,0,1,24.317,6.875c4.356,3.145,8.707,3.573,13.636,1.6,7.609-3.044,15.534-2.62,23.45-1.558,8.546,1.142,15.7,5.308,22.311,10.536a87.255,87.255,0,0,0,17.423,10.8,40.515,40.515,0,0,1,15.469,12.595c2.026,2.676,4.166,5.284,5.987,8.1C543.2,358.492,546.03,363.328,549.037,368.265Z" transform="translate(109.646 133.722)" fill="#7a4417"/>
    <path id="Path_31" data-name="Path 31" d="M554.049,158.105c0,3.492-.045,6.984.008,10.475.137,8.635,4.263,14.863,11.872,18.642a60.812,60.812,0,0,0,10.56,3.883,28.678,28.678,0,0,1,14.46,8.982,39.77,39.77,0,0,0,8.735,7.032c3.984,2.547,5.74,5.9,6.217,10.58,1.284,12.518-3.492,19.062-14.076,24.531-1.667.864-3.375,1.667-5.111,2.378q-10.809,4.432-21.645,8.788c-4.731,1.909-9.49,3.742-14.205,5.7a30.959,30.959,0,0,0-16.672,15.521c-6.645,13.576-17.641,23.534-28.932,33.122a20.341,20.341,0,0,1-10.225,4.449c-4.222.658-7.739-.476-10.378-3.863a86.9,86.9,0,0,1-5.43-7.5,12.587,12.587,0,0,0-7.694-6.027,18.534,18.534,0,0,1-9.063-5.769c-3.019-3.367-6.733-5.611-10.7-7.71a114.57,114.57,0,0,1-13.313-8.275,26.7,26.7,0,0,0-13.374-5.058c-4.812-.464-9.616-1.009-14.419-1.554a17.127,17.127,0,0,0-9.079,1.146c-7.081,3.137-14.262,1.51-21.387.258a3.621,3.621,0,0,1-3.338-3.891,4.754,4.754,0,0,1,4.368-4.017,41.193,41.193,0,0,0,4.759-.371,9.882,9.882,0,0,0,3.6-1.6c6.209-4.465,12.223-9.216,18.553-13.495,8.481-5.732,15.7-12.591,20.894-21.464a34.359,34.359,0,0,0,1.849-3.573c1.356-3.1,1.259-6.051-1.328-8.509a92.61,92.61,0,0,0-8.925-8.086A34.006,34.006,0,0,1,409.02,189.2a57.864,57.864,0,0,0-10-15.97c-3.125-3.383-4.271-7.678-5.1-12.086-1.038-5.538-2.273-11.045-3.149-16.607a27.355,27.355,0,0,1-.254-8.384c1.066-6.7,7.767-9.373,12.554-4.65,5.676,5.6,12.336,8.861,19.711,11.2a38.177,38.177,0,0,1,6.285,2.7c8.146,4.311,16.837,5.248,25.835,4.384,7.811-.747,15.521-.771,23.115,1.768a15.1,15.1,0,0,0,12.825-1.518,102.7,102.7,0,0,0,9.1-5.926,54.011,54.011,0,0,1,15.671-7.981c6.979-2.3,13.6-5.684,20.378-8.615a54.276,54.276,0,0,1,5.143-2.285c2.818-.888,4.57.024,5.906,2.672,1.631,3.229,3.467,6.366,4.864,9.692a27.812,27.812,0,0,1,2.281,8.033c.379,4.126.1,8.316.1,12.478Zm-155.622-23.09c-1.687,3.092-1.905,4.267-1.159,7.5,1.538,6.673,3.027,13.362,4.832,19.962a15.838,15.838,0,0,0,3.29,6.354,54.053,54.053,0,0,1,10.488,17.984,23.987,23.987,0,0,0,7.561,10.249,35.517,35.517,0,0,1,4.772,4.323c6.754,7.977,8.776,14.573,4.247,23.5a52.137,52.137,0,0,1-13.277,17.039c-3.726,3.064-7.779,5.736-11.719,8.534-5.627,4-11.291,7.96-17.346,12.223a14.209,14.209,0,0,0,9.252-.864,23.558,23.558,0,0,1,12.239-1.566c5.058.666,10.132,1.264,15.219,1.679a30.028,30.028,0,0,1,15.194,5.861,115.812,115.812,0,0,0,12.995,8.029c4.335,2.273,8.4,4.755,11.674,8.437a13.977,13.977,0,0,0,7.424,4.57,15.766,15.766,0,0,1,9.838,7.165c1.55,2.349,3.33,4.546,4.985,6.83,1.57,2.164,3.734,2.789,6.023,1.683,2.749-1.324,5.66-2.676,7.852-4.715,4.816-4.469,9.167-9.438,13.814-14.1a51.143,51.143,0,0,0,10.714-15.009c4.093-9.042,10.94-15.126,19.917-19.009,1.849-.8,3.678-1.655,5.543-2.41,5.974-2.414,12.005-4.7,17.939-7.214s11.872-5.046,17.649-7.892c6.39-3.149,10.185-8.041,9.741-15.687a7.612,7.612,0,0,0-3.109-6.067,89.681,89.681,0,0,1-9.672-9.059,19.565,19.565,0,0,0-8.518-5.809c-3.7-1.215-7.428-2.382-11-3.908-11.38-4.864-17.532-13.382-17.5-25.961a137.944,137.944,0,0,1,.436-15.3c.9-7.92-2.438-14.246-6.532-20.543a146.417,146.417,0,0,1-29,12.151,21.593,21.593,0,0,0-5.656,3.011c-3.371,2.2-6.6,4.618-9.955,6.854-7.254,4.848-15.041,6.241-23.413,3.379a30.737,30.737,0,0,0-11.521-1.449c-2.955.141-5.906.283-8.857.448-8.873.488-17.362-.775-25.44-4.767-4.683-2.313-9.587-4.2-14.464-6.1a32.286,32.286,0,0,1-11.537-7.177A44.578,44.578,0,0,0,398.428,135.015Z" transform="translate(161.875 157.859)" fill="#7a4417"/>
    <path id="Path_32" data-name="Path 32" d="M392.572,233.175l-3.221.319c6.854-4.44,9.825-11.182,12.086-18.517,1.9-6.152,4.34-12.135,6.3-18.27,2.761-8.639,2.212-17.027-3.031-24.661a52.834,52.834,0,0,0-6.213-6.842,27.243,27.243,0,0,1-6.963-10.71,18.987,18.987,0,0,1-.965-4.307c-.254-3.322,1.264-4.969,4.493-4.5,7.722,1.126,15.533,2.321,22.158,6.794,9.2,6.217,18.981,6.669,29.323,3.948A80.91,80.91,0,0,0,478.2,140.257c3.2-2.664,6.5-5.216,9.923-7.581,3.964-2.737,6.362-2.031,9.01,2.026,4.319,6.612,4.82,13.774,3.464,21.306q-1.211,6.727-2.043,13.527c-.646,5.3,1.8,9.188,6.285,11.638,3.044,1.655,6.414,2.7,9.612,4.081,5.781,2.5,11.581,4.969,17.285,7.642a15.1,15.1,0,0,1,4.481,3.359c4.238,4.525,3.33,10.407-2.317,12.9a40.853,40.853,0,0,1-11.21,2.91c-5.05.642-10.185.569-15.283.888-12.191.759-23.151,4.525-31.935,13.4-4.226,4.275-7.315,9.01-8.134,15.307-.84,6.427-4.953,11.246-10.072,14.981a11.5,11.5,0,0,1-5.664,1.736,26.724,26.724,0,0,1-18.283-4.885c-1.744-1.255-3.468-2.547-5.107-3.936a34.955,34.955,0,0,0-18.981-8.106c-1.465-.17-2.935-.335-4.4-.488C399.435,240.409,395.023,238.266,392.572,233.175Zm5.066-2.814c2.063,2.567,4.485,3.108,7.064,3.407,3.464.4,6.959.686,10.362,1.4a40.284,40.284,0,0,1,17.467,8.752,51.189,51.189,0,0,0,9.531,6.649c4.016,1.986,8.829,2.858,12.861.8a14.231,14.231,0,0,0,7.908-10.637c.791-6.37,3.762-11.4,7.876-15.957a48.5,48.5,0,0,1,30.833-15.9c7.044-.88,14.2-.86,21.278-1.57a24.774,24.774,0,0,0,8.029-2.309c2.935-1.4,3.028-3.766.311-5.587a25.332,25.332,0,0,0-6.209-2.737c-5.1-1.675-10.33-2.971-15.356-4.84a49.9,49.9,0,0,1-10.407-5.159,17.129,17.129,0,0,1-8.057-15.747,78.081,78.081,0,0,1,.682-8.013c.622-4.109,1.534-8.179,2.192-12.284a17.593,17.593,0,0,0-2.487-12.227c-.416.052-.731,0-.92.133-2.2,1.534-4.36,3.137-6.58,4.642-11.5,7.8-23.526,14.52-37.219,17.766-10.871,2.579-21.282,2.257-30.954-4.186a35.73,35.73,0,0,0-13.874-5.163q-2.422-.424-4.844-.844l-.481.828a68.834,68.834,0,0,0,3.96,5.91c1.784,2.172,3.984,4,5.777,6.168a47.893,47.893,0,0,1,5.659,7.767c4.658,8.816,4.784,18.057,1.465,27.317-2.083,5.809-4.63,11.448-6.818,17.221C404.67,221.271,402.466,226.434,397.638,230.362Z" transform="translate(199.839 176.499)" fill="#7a4417"/>
    <path id="Path_33" data-name="Path 33" d="M445.841,141.376c3.181-.295,6.366-.6,9.551-.868a24.487,24.487,0,0,1,3.217-.133c4.089.186,5.438,1.421,6.1,5.482.194,1.195.416,2.386.573,3.581.448,3.383,1.885,6.221,4.9,7.936,3.746,2.131,4.42,6.54,1.255,10.354a13.179,13.179,0,0,1-7.989,5.054c-1.849.319-3.67.807-5.5,1.239a15.7,15.7,0,0,0-7.634,4.267c-5.611,5.583-11.892,10.516-16.482,17.084a6.333,6.333,0,0,1-1.389,1.453c-8.211,6.059-17.056,10.2-27.612,8.554a7.222,7.222,0,0,1-4.077-2.269c-5.256-6.293-5.163-13.325-.529-20.014a8.524,8.524,0,0,0,1.6-3.77c1-6.5,1.982-13,3.112-19.473,1.118-6.418,4.784-10.6,11.17-12.385,6.584-1.837,13.071-4.033,19.7-5.7,3.209-.807,6.632-.771,9.963-1.118Zm14.734,4.105a9.167,9.167,0,0,0-6.81.662,19.586,19.586,0,0,1-5.24,1.99c-6.366.961-12.756,1.95-19.171,2.382a68.426,68.426,0,0,0-14.52,3.056,7.034,7.034,0,0,0-5.115,4.7,91.641,91.641,0,0,0-3.048,10.815c-1.4,7.379-2.5,14.819-3.686,22.239a25.14,25.14,0,0,0-.384,4c0,1.445.638,2.87,2.16,2.979,3.322.23,6.8.731,9.971.024,3.871-.864,7.532-2.765,11.2-4.408a12.831,12.831,0,0,0,3.524-2.632q8.507-8.283,16.906-16.676a22.109,22.109,0,0,1,11.533-6.188c1.578-.319,3.173-.609,4.707-1.078a7.449,7.449,0,0,0,5.518-5.607C462.638,157.794,461.048,151.9,460.575,145.482Zm-59.756,41.365c-1.021,1.7-2.055,3.4,0,5.357Z" transform="translate(222.397 204.811)" fill="#7a4417"/>
    <path id="Path_34" data-name="Path 34" d="M401.41,177.008a8.732,8.732,0,0,1-.178-9.2c2.789-5.337,5.373-10.827,8.659-15.844,2.822-4.307,7.6-6.479,12.538-7.25a51.18,51.18,0,0,1,12.793-.109c5.692.561,7.121,4.178,3.512,8.566a81.715,81.715,0,0,1-9.8,10.6c-5.074,4.3-9.938,8.954-16.042,11.973a10.427,10.427,0,0,1-6.5,1.3A35.427,35.427,0,0,0,401.41,177.008Zm5.575-4.243c1.227.888,2.471.371,3.714-.654,4.428-3.665,9.111-7.056,13.245-11.024,3.621-3.468,6.632-7.569,9.963-11.456-8.267-3.346-19.457.436-22.295,7.686a45.808,45.808,0,0,1-2.349,4.194,9.3,9.3,0,0,0-.965,2.575C407.82,166.795,407.465,169.524,406.985,172.765Z" transform="translate(232.213 216.656)" fill="#7a4417"/>
  </g>
</svg>
