<svg xmlns="http://www.w3.org/2000/svg" width="541.475" height="533.053" viewBox="0 0 541.475 533.053">
  <g id="Group_3236" data-name="Group 3236" transform="translate(-323.545 -72.918)" opacity="0.033">
    <path id="Path_23" data-name="Path 23" d="M865.019,367.142c-.268,1.473-.5,3.59-1.047,5.62a18.706,18.706,0,0,0,.4,12.156,7.58,7.58,0,0,1,.564,2.6c.141,7.2-1.137,14.018-5.6,19.914a133.114,133.114,0,0,0-12.112,19.216,139.716,139.716,0,0,1-8.952,14.512,20.892,20.892,0,0,1-10.646,8.335c-13.995,4.677-26.684,11.951-38.948,19.947-10.938,7.13-21.571,14.726-32.3,22.182a36.351,36.351,0,0,0-11.931,14.233,92.128,92.128,0,0,1-12.106,18.82,52.54,52.54,0,0,0-4.08,5.724c-6.043,9.6-13.938,16.941-24.48,21.558-4.858,2.127-9.274,5.3-13.8,8.16-3.959,2.5-7.69,5.372-11.7,7.781a59.3,59.3,0,0,0-16.226,13.824,26.05,26.05,0,0,1-9.667,7.549c-4.05,1.872-8.022,3.922-12.008,5.932a24.862,24.862,0,0,1-10.559,2.9,17.935,17.935,0,0,0-11.435,4.12,7.974,7.974,0,0,1-2.6,1.48c-6.026,1.949-12.264,3.325-18.4,1.194-10.281-3.57-20.9-5.516-31.53-7.5-1.97-.369-3.9-.95-5.838-1.476a28.9,28.9,0,0,1-16.541-11.21c-7.056-9.76-16.025-17.739-25.269-25.309-10.8-8.838-21.987-17.186-33.006-25.752a42.367,42.367,0,0,0-21.182-8.509,76.7,76.7,0,0,1-16.82-4.325c-3.664-1.335-7.408-2.459-11.153-3.557-9.841-2.882-18.585-7.516-25.386-15.414a74.793,74.793,0,0,0-13.005-11.532c-3.7-2.681-7.341-5.472-10.787-8.472a58.82,58.82,0,0,0-18.149-11.176,26,26,0,0,1-10.18-6.841c-3.187-3.436-6.509-6.751-9.811-10.083a22.8,22.8,0,0,1-5.452-8.341,18.918,18.918,0,0,0-7.835-10.133,7.738,7.738,0,0,1-2.167-2.063c-3.859-5.462-6.872-11.3-6.714-18.209a156.676,156.676,0,0,0-2.11-27.3,56.2,56.2,0,0,1-.443-17.021,19.422,19.422,0,0,1,3.013-8.445c12.072-17.2,19.346-36.653,26.433-56.187,2.359-6.5,4.449-13.1,6.664-19.658a39.768,39.768,0,0,0,1.332-20.494,82.134,82.134,0,0,1-1.225-18.337c.131-3.791.1-7.6-.047-11.384-.409-10.613,1.423-20.645,7.066-29.842a69.547,69.547,0,0,0,6.623-15.33c1.4-4.352,2.919-8.68,4.727-12.871a60.8,60.8,0,0,0,5.137-21.7,22.207,22.207,0,0,1,2.63-9.6c2.513-4.731,4.986-9.485,7.469-14.233a21.748,21.748,0,0,1,5.9-7.2A18.9,18.9,0,0,0,407,114.843a7.211,7.211,0,0,1,1.087-2.429c3.976-5.546,8.683-10.267,15.38-12.368a148.591,148.591,0,0,0,24.121-9.838,61.309,61.309,0,0,1,17.578-6.335,20.075,20.075,0,0,1,9.6.52c15.716,4.882,31.949,6.3,48.252,7,11.374.49,22.769.5,34.153.735a35.367,35.367,0,0,0,17.394-4.251,99.264,99.264,0,0,1,22.108-8.563,37.248,37.248,0,0,0,5.385-1.822,61.206,61.206,0,0,1,18.813-4.449,43.055,43.055,0,0,1,12.958,1.064,83.662,83.662,0,0,0,18.632,1.731c4.342-.034,8.7.195,13.035.554,6.513.537,12.988.453,19.276-1.352A32.935,32.935,0,0,1,701,74.693c3.6.755,7.244,1.332,10.885,1.879a22.848,22.848,0,0,1,9.667,3.52,19.537,19.537,0,0,0,12.592,3.734,7.621,7.621,0,0,1,2.97.389c6.314,2.2,12.149,5.2,16.109,10.861a145.151,145.151,0,0,0,15.874,18.957,120.914,120.914,0,0,1,10.475,12.6,19.785,19.785,0,0,1,4.2,11.821c.1,14.414,2.922,28.423,6.643,42.233,3.513,13.032,7.556,25.919,11.445,38.847A36.883,36.883,0,0,0,811.953,235.5a87.566,87.566,0,0,1,13.367,16.26,57.19,57.19,0,0,0,4.751,6.472,60,60,0,0,1,8.579,13.532,43.969,43.969,0,0,1,4.08,15.109,77.127,77.127,0,0,0,3.567,16.659c1.466,4.681,2.849,9.395,4.013,14.156,1.6,6.56,3.808,12.857,7.573,18.494a29.629,29.629,0,0,1,4.858,13.384c.523,4.543,1.312,9.056,1.949,13.589C864.848,364.26,864.879,365.381,865.019,367.142ZM327.777,381.754a175.269,175.269,0,0,0,4.872,36.438c1.034,4.536,3.171,8.737,7.016,11.482a29.43,29.43,0,0,1,10.311,13.273,18.512,18.512,0,0,0,3.429,5.268c3.379,3.718,7,7.207,10.455,10.858a18.744,18.744,0,0,0,7.18,4.768,66.79,66.79,0,0,1,20.648,12.831c3.181,2.792,6.543,5.4,9.975,7.878,4.818,3.476,9.526,7.1,13.327,11.666,6.15,7.378,14.129,11.4,23.242,13.663,4.546,1.127,9.026,2.517,13.575,3.634,4.872,1.2,9.747,2.443,14.689,3.261a48.415,48.415,0,0,1,20.377,8.016c4.2,2.959,8.355,5.979,12.428,9.106,17.8,13.669,34.016,28.969,47.128,47.279A28.578,28.578,0,0,0,561.539,592.1a178.685,178.685,0,0,0,40,7.734,18.534,18.534,0,0,0,13.015-3.432,25.165,25.165,0,0,1,14.213-5.251,19.765,19.765,0,0,0,8.029-2.107q6.417-3.266,12.9-6.388a18.217,18.217,0,0,0,6.5-5.137,67.522,67.522,0,0,1,19.125-16.062,117.3,117.3,0,0,0,10.005-6.7c4.882-3.577,9.878-6.986,15.5-9.237,8.922-3.573,15.179-9.975,20.128-17.947,2.235-3.6,4.677-7.076,6.9-10.683,2.869-4.65,5.8-9.277,8.361-14.1,3.52-6.617,7.875-12.525,14.015-16.833,9.318-6.533,18.608-13.156,28.318-19.071a203.661,203.661,0,0,1,45.893-20.93,20.283,20.283,0,0,0,10.307-7.093c.752-.97,1.54-1.916,2.271-2.9,8.241-11.089,14.572-23.252,19.9-35.938a18.425,18.425,0,0,0,.748-13.122,28.622,28.622,0,0,1-.621-15.82,22.43,22.43,0,0,0,.47-6.935c-.463-4.771-1.349-9.5-1.95-14.26a20.729,20.729,0,0,0-3.265-9.032,65.689,65.689,0,0,1-8.989-22.222c-.923-4.127-2.124-8.207-3.439-12.227a76.981,76.981,0,0,1-3.936-17.26c-.48-5.519-1.637-10.848-4.523-15.622a105.935,105.935,0,0,0-6.258-9.076c-2.557-3.382-5.254-6.664-8-9.891-3.61-4.248-7.184-8.543-11.046-12.562A48.153,48.153,0,0,1,794.6,223.751c-2.308-6.989-4.577-14-6.516-21.1-5.053-18.474-8.288-37.247-8.542-56.459-.037-2.567-.164-5.134-.218-7.7a16.448,16.448,0,0,0-2.486-8.244c-1.091-1.815-2.261-3.59-3.493-5.315-7.838-10.962-17.256-20.481-27.4-29.271a18.311,18.311,0,0,0-12.2-4.885,28.636,28.636,0,0,1-15.833-4.556,18.587,18.587,0,0,0-5.851-2.292c-4.909-1.03-9.9-1.691-14.824-2.664a21.178,21.178,0,0,0-9.583.507,62.537,62.537,0,0,1-19.92,1.815c-6.784-.45-13.6-.423-20.393-.859a89.6,89.6,0,0,1-14.267-1.664,39.671,39.671,0,0,0-22.709,1.553c-4.728,1.684-9.412,3.5-14.058,5.4-5.674,2.318-11.358,4.634-16.911,7.224-6.254,2.912-12.693,4.983-19.622,5.05-7.033.067-14.069.05-21.095-.2-20.853-.738-41.364-3.768-61.207-10.341a28.633,28.633,0,0,0-18.639.067,178.762,178.762,0,0,0-36.9,17.283,18.167,18.167,0,0,0-8.375,10.136,28.456,28.456,0,0,1-9,13.411,21.557,21.557,0,0,0-4.4,5.378c-2.56,4.446-4.8,9.076-7.217,13.606a16.206,16.206,0,0,0-1.993,7.016,70.19,70.19,0,0,1-6.667,26.114,71.078,71.078,0,0,0-3.228,8.784c-1.889,6.217-4.04,12.354-7.5,17.857-5.05,8.039-6.338,16.783-5.778,26.013.305,5.013.443,10.032.765,15.045a84.982,84.982,0,0,0,1.03,10.989,56.063,56.063,0,0,1-2.691,30.949c-.7,1.882-1.305,3.8-1.959,5.7-7.7,22.276-17.538,43.491-31.563,62.539a26.694,26.694,0,0,0-5.59,17.105C327.807,379.073,327.777,380.416,327.777,381.754Z" transform="translate(0)" fill="#7a4417"/>
    <path id="Path_24" data-name="Path 24" d="M325.879,262.283a53.165,53.165,0,0,1,2.835-21.41,15.808,15.808,0,0,0,.037-11.472,12.29,12.29,0,0,1-.389-4.61c.138-6.362.56-12.723.5-19.078a37.683,37.683,0,0,1,5.808-21.333c3.724-5.768,6.05-11.747,5.969-18.783-.087-7.546,2.406-14.733,4.345-21.947,2.577-9.586,5.228-19.159,8.143-28.647,1-3.265,2.812-6.3,4.416-9.354a8.392,8.392,0,0,1,4.865-4.12c-5.865,7.512-6.861,16.015-9.1,24.081-.446,1.611-.768,3.258-1.161,4.885-1.117,4.667-2.137,9.361-3.389,13.995-2.231,8.267-3.543,16.639-2.412,25.178,1.238,9.361-1.657,17.075-8.18,23.749a16.68,16.68,0,0,0-3.486,6.009c-2.949,8.341-3.553,17.008-2.959,25.775a7.922,7.922,0,0,0,.963,3.5,12.463,12.463,0,0,1,1.225,10.039c-1.416,5.264-3.255,10.415-5.006,15.582C327.98,257.049,326.862,259.71,325.879,262.283Z" transform="translate(5.236 67.387)" fill="#7a4417"/>
    <path id="Path_25" data-name="Path 25" d="M330.613,360.068a75.544,75.544,0,0,1,3.436-24.473,45.149,45.149,0,0,0,1.312-5.878,45.773,45.773,0,0,1,7.15-16.827c2.486-3.835,4.714-7.838,6.992-11.8,2.443-4.258,4.6-8.7,7.261-12.81a40.04,40.04,0,0,0,6.774-23.128c-.292-10.7,2.617-20.648,6.362-30.254a97.218,97.218,0,0,0,4.9-19.269c1.755-10.193,2.151-20.4,2.47-30.657a61.667,61.667,0,0,1,4.066-20.276c2.6-6.758,5.754-13.3,8.64-19.947,2.2-5.087,4.164-10.294,6.637-15.246,1.154-2.315,3.174-4.234,4.959-6.187,2.553-2.795,5.295-5.412,7.868-8.187A56.38,56.38,0,0,1,426.614,102.6c2.312-1.111,4.731-2.03,6.952-3.3,8.922-5.1,18.719-7.754,28.526-10.4a24.312,24.312,0,0,1,4.285-.715c6.674-.55,13.344-1.252,20.031-1.46a44.841,44.841,0,0,1,9.932,1.208c8.1,1.6,16.152,3.389,24.222,5.113,2.07.443,4.164.825,6.2,1.409a39.507,39.507,0,0,0,24.41-.648c10.19-3.6,20.635-3.281,31.107-3.419,1.1-.013,2.2.453,3.305.446a82.165,82.165,0,0,0,9.63-.322c4.419-.55,8.8-1.416,13.169-2.315,4.036-.829,8.036-1.845,12.039-2.832,6.711-1.654,13.334-3.812,20.128-4.919,11.247-1.832,22.487-.5,33.65,1.389,1.409.238,2.865.2,4.292.349,2.993.315,5.979.9,8.975.966,4.872.111,8.888,2.228,12.918,4.62a63.288,63.288,0,0,0,7.318,3.292,54,54,0,0,1,17.508,12.609c1.775,1.859,3.379,3.9,5.291,5.593,7.372,6.529,12.569,14.76,18.028,22.779a31.09,31.09,0,0,1,2.825,5.311c2.406,5.647,4.865,11.277,6.969,17.038a42.51,42.51,0,0,1,2.147,9.422c1.134,9.3,2.03,18.632,3.02,27.949.117,1.111.309,2.221.316,3.332.084,9.9,3.765,18.508,9.552,26.3a45.829,45.829,0,0,1,6.717,12.653c1.151,3.382,2.536,6.684,3.644,10.073a49.3,49.3,0,0,1,1.674,6.8,28.814,28.814,0,0,0,3.654,9.989c2.107,3.54,3.909,7.261,5.892,10.878,1.446,2.641,2.872,5.3,4.476,7.841,1.785,2.832,3.674,5.607,5.674,8.291,9.12,12.253,13.29,26.379,15.807,41.173,1.007,5.912,1.879,11.9,3.6,17.622,1.043,3.456.289,6.56.02,9.787-.322,3.875-1.131,7.707-1.58,11.576a56.561,56.561,0,0,1-6.184,19.3c-1.775,3.476-3.536,6.966-5.489,10.344-6.221,10.76-12.992,21.1-22.876,28.983q-3.664,2.924-7.117,6.1a46.373,46.373,0,0,1-14.223,8.647c-5.16,2.107-10.227,4.439-15.33,6.687-4.285,1.892-8.519,3.909-12.847,5.694A39.342,39.342,0,0,0,721,468.023c-6.023,8.844-14.6,14.646-22.8,20.96a12.987,12.987,0,0,1-2.634,1.456,26.513,26.513,0,0,0-9.418,7.341c-2.372,2.805-5.073,5.328-7.6,8.006-2.218,2.352-4.469,4.681-6.566,7.137-1.808,2.121-3.516,4.345-5.107,6.633-9.667,13.914-23.141,23-38.012,30.446-4.942,2.473-9.492,5.727-14.364,8.358a22.662,22.662,0,0,1-6.321,1.906c-5.134,1.02-10.274,2.08-15.458,2.745a54.5,54.5,0,0,1-18.3-.416c-3.379-.715-6.825-1.121-10.207-1.822-12.609-2.61-24.98-5.872-35.868-13.2-2.406-1.617-4.909-3.1-7.442-4.513a46.48,46.48,0,0,1-13.3-11.582c-3.04-3.711-6.311-7.231-9.516-10.8-3.58-3.986-7.278-7.868-10.787-11.914a38.873,38.873,0,0,0-18.518-12.18c-10.27-2.986-18.447-9.321-27.017-15.132-4.677-5.586-11.2-8.163-17.525-11.294-6.915-3.429-13.773-6.892-21.168-9.116-15.3-4.607-27.661-13.733-38.861-24.762a159.874,159.874,0,0,0-13.263-12.166c-2.8-2.194-4.093-5.1-5.727-7.9-1.738-2.976-3.11-6.167-4.858-9.133a55.076,55.076,0,0,1-6.942-20.769c-.5-3.647-1.218-7.268-1.594-10.925C331.3,370.295,331.005,365.178,330.613,360.068Zm6.949.792c.228,4.228.369,8.462.708,12.68.372,4.667.97,9.318,1.4,13.981.305,3.335.48,6.784,2.469,9.562,3.063,4.278,4.479,9.183,6.14,14.038a15.829,15.829,0,0,0,2.443,4.691c4.107,5.147,8.2,10.324,12.612,15.2,12.515,13.827,27.55,23.242,46.326,26.084a52.3,52.3,0,0,1,10.589,3.016c4.795,1.815,9.438,4.026,14.156,6.049a29,29,0,0,1,11.878,8.989,32.988,32.988,0,0,0,5.174,5.2,51.338,51.338,0,0,0,19.595,10.519,43.57,43.57,0,0,1,23.376,15.391c2.7,3.4,5.889,6.409,8.818,9.63,3.3,3.634,6.68,7.207,9.807,10.989a41.685,41.685,0,0,0,12.639,10.8,48.373,48.373,0,0,1,5.982,3.688c9.167,6.667,19.984,9.257,30.57,12.324,5.341,1.547,10.888,2.382,16.347,3.516,2.718.564,5.489,1.285,8.227.426,5.55-1.738,11.234-1.517,16.924-1.523a11.119,11.119,0,0,0,3.9-.815c6.543-2.557,13.173-4.949,19.548-7.882,11.8-5.432,22.4-12.643,30.254-23.212,3.05-4.1,5.429-8.7,8.194-13.022a87.739,87.739,0,0,1,5.667-8.267c3.308-4.067,6.888-7.915,10.354-11.854a29.568,29.568,0,0,1,12.257-8.479,34.725,34.725,0,0,0,6.536-3.325,51.018,51.018,0,0,0,16.028-15.421,43.465,43.465,0,0,1,21.608-17.283c4.063-1.527,7.915-3.607,11.881-5.4,4.577-2.064,9.11-4.238,13.773-6.083a41.823,41.823,0,0,0,13.911-8.482,73.445,73.445,0,0,1,6.4-5.4c8.811-6.711,14.491-16,20.528-24.97,2.859-4.241,5.133-8.878,7.69-13.324,1.5-2.607,3.318-5.137,3.4-8.247.158-5.905,1.939-11.391,3.8-16.894a10.428,10.428,0,0,0,.429-3.959c-.534-7.794-.839-15.622-1.849-23.359-1.55-11.857-5.113-23.151-12.076-33.029-3.2-4.543-7.177-8.536-10.69-12.867a97.158,97.158,0,0,1-6.15-8.324c-2.483-3.838-4.667-7.868-7.059-11.77a29.717,29.717,0,0,1-4.694-15.169,20.644,20.644,0,0,0-.463-4.315c-1.879-7.989-4.4-15.7-9.935-22.061a32.433,32.433,0,0,1-2.543-3.533c-4.291-6.556-7.093-13.626-7.5-21.554-.161-3.12-.594-6.224-.926-9.331-.765-7.1-1.617-14.186-2.285-21.293a41.5,41.5,0,0,0-3.379-13.908,88.639,88.639,0,0,1-3.436-8.358c-3.637-10.465-10.7-18.753-17.353-27.265-3.288-4.208-7.147-7.969-10.724-11.955-2.09-2.329-4.15-4.8-7.2-5.784-4.8-1.54-8.684-4.489-12.666-7.372a15.84,15.84,0,0,0-4.664-2.51c-5.784-1.681-11.6-3.295-17.468-4.627a95.34,95.34,0,0,0-26.95-2.3c-10.1.6-19.447,3.8-28.432,8.241a47.744,47.744,0,0,1-12.347,4.1c-3.835.728-7.64,1.617-11.425,2.58a29.038,29.038,0,0,1-16.508-.134,21.61,21.61,0,0,0-4.593-.842,52.562,52.562,0,0,0-24.366,2.845,43.232,43.232,0,0,1-27.627,1.282c-2.684-.745-5.439-1.241-8.17-1.812-7.314-1.527-14.653-2.946-21.943-4.577a39.129,39.129,0,0,0-12.3-.859c-3.224.3-6.449.661-9.68.738-10.837.262-20.709,4.3-30.667,7.865-5.338,1.912-10.415,4.556-15.592,6.912-2.526,1.151-5.241,2.154-6.932,4.476-3.362,4.62-7.935,7.788-12.5,11.009a9.033,9.033,0,0,0-2.137,2.09c-6.865,9.67-13.173,19.662-17.548,30.758a69.77,69.77,0,0,0-4.768,34.794c.708,5.644,1.456,11.294.775,17.025-.53,4.429-.879,8.881-1.262,13.33a29.961,29.961,0,0,1-4.681,14.146,41.7,41.7,0,0,0-3.791,7.422c-2.654,6.7-4.379,13.6-3.674,20.913a26.467,26.467,0,0,1,0,3.684,43.622,43.622,0,0,1-4.909,19.31c-4.426,8.137-8.69,16.4-13.726,24.155a75.579,75.579,0,0,0-10.385,24.8C338.914,345.157,337.444,352.85,337.562,360.86Z" transform="translate(16.625 15.691)" fill="#7a4417"/>
    <path id="Path_26" data-name="Path 26" d="M338.474,348.787c0-3.235-.037-6.469.017-9.7a16.962,16.962,0,0,1,.416-3.983c.238-.916-.194-2.184,1.443-2.694.523-.161.5-2.251.631-3.469a46.038,46.038,0,0,1,6.15-18.293A204.751,204.751,0,0,0,362.873,276.7a91.567,91.567,0,0,0,5.093-20.018,113.675,113.675,0,0,1,2.11-11.861,66.176,66.176,0,0,0,1.527-13.27c.121-4.231.517-8.462,1-12.67a17.075,17.075,0,0,1,1.51-5.117c3.043-6.536,4.4-13.572,6.207-20.474a12.227,12.227,0,0,0,.393-3.64,61.872,61.872,0,0,1,1.9-17.243,104.15,104.15,0,0,0,2-12.217,39.648,39.648,0,0,1,4.11-14.059c3.09-5.939,5.952-12.045,9.556-17.665,6.405-9.992,14.985-17.649,26.232-21.994,5.623-2.174,11.206-4.442,16.863-6.523,3.523-1.3,7.066-2.865,10.992-1.486a2.578,2.578,0,0,0,1.322-.1c8.838-2.06,17.568-.862,26.218,1.054,7.982,1.772,15.974,3.127,24.195,3.033,3.56-.04,7.13.342,10.693.6a52.023,52.023,0,0,0,12.659-.772c5.936-1.017,11.935-1.668,17.88-2.624,3.516-.567,7-1.332,10.465-2.171,3.251-.789,6.429-1.882,9.68-2.667a32.761,32.761,0,0,1,10.636-.664,97.307,97.307,0,0,0,11.368.077c5.926-.185,11.754-.788,17.394-2.973,2.543-.986,5.446-1.09,8.2-1.493,4.745-.695,9.583-.963,14.236-2.037,7.271-1.681,14.414-1.151,21.6.161,3.952.725,7.915,1.416,11.837,2.275,12.492,2.741,23.084,8.744,31.335,18.622q6.009,7.2,11.828,14.562c1.305,1.654,2.852,3.389,3.382,5.332,2.147,7.865,6.9,14.847,7.721,23.138.309,3.11.916,6.2,1.107,9.311.533,8.771,3.268,17.045,5.311,25.5a92.373,92.373,0,0,0,10.351,25.993,10.926,10.926,0,0,1,.741,1.5,107.047,107.047,0,0,0,12.881,23.017c2.8,3.818,4.208,8.257,5.493,12.834,2.432,8.683,5.093,17.313,10.727,24.7,2.067,2.711,3.426,5.982,4.993,9.059,2.329,4.57,4.338,9.314,6.875,13.763,3.761,6.59,4.926,13.82,5.935,21.131.319,2.322.43,4.681.879,6.976,1.829,9.381.339,18.511-2.392,27.426a52.6,52.6,0,0,1-5.392,11.093c-3.127,5.281-6.543,10.395-9.972,15.488-1.362,2.02-2.728,4.446-4.724,5.553-4.825,2.688-7.862,7.472-12.636,10.089s-9.539,5.358-14.5,7.627c-6.821,3.12-13.5,6.4-19.538,10.918-2.943,2.2-6.143,4.067-9.281,6a50.938,50.938,0,0,0-9.633,7.731c-4.7,4.771-9.633,9.308-14.387,14.025-1.973,1.959-3.818,4.063-5.6,6.2-2.208,2.664-4.1,5.617-6.472,8.11a39.93,39.93,0,0,1-7.828,6.717c-6.06,3.684-11.3,8.365-16.716,12.837a32.267,32.267,0,0,0-3.218,3.835c-2.792,3.174-5.516,6.422-8.459,9.455-3.8,3.919-7.882,7.58-11.687,11.5a41,41,0,0,1-11.2,8.392c-5.9,2.932-11.75,5.989-17.823,8.512a61.717,61.717,0,0,1-11.586,3.11,50.71,50.71,0,0,1-25.144-1.352c-5.224-1.6-10.586-2.745-15.84-4.264-2.231-.644-4.855-1.2-6.4-2.718-4.268-4.194-10.358-5.5-14.515-9.74-4.218-4.3-8.707-8.361-12.676-12.878-4.765-5.425-10.522-9.62-15.971-14.233-7.633-6.459-15.585-12.3-24.92-16.068a7.85,7.85,0,0,1-1.188-.621,116.072,116.072,0,0,0-25.171-11.579c-4.181-1.345-7.61-4.043-11.109-6.7-5.405-4.114-11.193-7.724-16.854-11.5a8.2,8.2,0,0,0-2.48-.986,59.883,59.883,0,0,1-15.525-6.962A106.727,106.727,0,0,0,378.8,415.07a42.384,42.384,0,0,1-13.18-9.036c-4.429-4.567-9.1-8.952-13.136-13.851a55.117,55.117,0,0,1-13.156-35.032c-.04-2.788-.007-5.576-.007-8.365Zm123.548-247.27c-11.334,1.067-21.387,1.678-30.14,7.539a22.567,22.567,0,0,1-4.768,2.433c-6.68,2.436-11.951,6.821-16.89,11.754a39.574,39.574,0,0,0-7.835,10.371c-2.668,5.405-5.355,10.8-7.972,16.226a34.218,34.218,0,0,0-3,11.264,95.7,95.7,0,0,1-1.567,10.254c-1.406,6.335-2.785,12.646-2.312,19.2a7.131,7.131,0,0,1-.175,2.328c-1.809,6.674-3.2,13.512-5.65,19.944a44.873,44.873,0,0,0-3.05,16.29,98.857,98.857,0,0,1-.849,13.666c-1.013,7.174-2.288,14.324-3.781,21.413a73.152,73.152,0,0,1-3.557,11.448c-1.621,4.15-3.6,8.167-5.55,12.18-2.241,4.61-4.55,9.193-6.972,13.713-1.845,3.442-3.818,6.821-5.892,10.129-6.372,10.163-8.325,21.544-9.314,33.2a11.142,11.142,0,0,0,.292,2.644c.926,5.838,1.8,11.69,2.842,17.508a37.3,37.3,0,0,0,1.879,6.734c1,2.6,2.288,5.087,3.493,7.6a35.122,35.122,0,0,0,7.056,10.109c3.909,3.828,7.838,7.637,11.717,11.492a39.986,39.986,0,0,0,11.257,7.727c4.228,2.006,8.422,4.12,12.458,6.482a53.544,53.544,0,0,0,13.116,5.808,12.12,12.12,0,0,1,3.406,1.369c5.634,3.617,11.6,6.855,16.692,11.126a47.7,47.7,0,0,0,17.018,8.932,70.5,70.5,0,0,1,10.519,4.261q9.875,4.942,19.5,10.368a51.715,51.715,0,0,1,9.039,6.261c10.485,9.375,20.833,18.91,29.8,29.812.493.6,1.08,1.127,1.61,1.7a56.909,56.909,0,0,0,18.414,13.143c1.825.835,3.587,1.855,5.479,2.5a56.041,56.041,0,0,0,7.68,2.107c4.053.772,8.14,1.4,12.233,1.892a74.164,74.164,0,0,0,10.3.745,46.906,46.906,0,0,0,9.281-1.225,47.665,47.665,0,0,0,9.539-2.966c5.362-2.476,10.516-5.405,15.77-8.123a39.256,39.256,0,0,0,10.284-7.935c3.627-3.785,7.549-7.281,11.213-11.029,2.718-2.785,5.248-5.751,7.824-8.67,1.255-1.419,2.238-3.13,3.661-4.332,5.892-4.949,11.606-10.113,18.286-14.079a28.723,28.723,0,0,0,6.21-5.516c1.869-2.053,3.292-4.506,5.04-6.68a94.877,94.877,0,0,1,6.523-7.613c5.278-5.295,10.643-10.509,16.132-15.582a53.978,53.978,0,0,1,8.187-6.315c5.12-3.167,10.348-6.2,15.723-8.908,6.969-3.513,14.069-6.778,21.215-9.915a63.883,63.883,0,0,0,23.088-16.807c.95-1.1,2.043-2.077,2.922-3.224a33.783,33.783,0,0,0,3.171-4.667c2.607-4.929,5.157-9.895,7.573-14.917a38.621,38.621,0,0,0,2.547-6.875c.735-2.8,1.111-5.691,1.647-8.542a35.158,35.158,0,0,0,.094-12.331c-.919-5.5-1.936-10.988-2.832-16.494a38.277,38.277,0,0,0-4.318-11.894c-2.312-4.325-4.553-8.7-6.546-13.179a54.061,54.061,0,0,0-6.684-11.552,17.5,17.5,0,0,1-2.617-4.261c-2.822-7.153-6.013-14.159-7.69-21.746a29.1,29.1,0,0,0-3.54-7.882c-1.382-2.406-3.329-4.483-4.8-6.845-2.067-3.3-4.057-6.664-5.845-10.116-2.154-4.161-3.832-8.576-6.133-12.643a59.551,59.551,0,0,1-7.442-20.991c-1.1-7.606-2.922-15.109-4.11-22.705-.946-6.06-1.06-12.257-2.171-18.276-2.352-12.763-7.335-24.279-17.25-33.19a73.137,73.137,0,0,1-5.422-5.469,48.507,48.507,0,0,0-27.859-15.468c-11.28-2.087-22.514-3.973-34.156-1.168-8.506,2.05-17.541,1.711-25.859,5.023a1.991,1.991,0,0,1-.654.144c-7.687.252-15.377.466-23.064.752a58.767,58.767,0,0,0-8.606.644c-2.832.53-5.523,1.772-8.334,2.469-3.993.99-8.016,1.9-12.066,2.6-4.285.738-8.663.97-12.925,1.812a70.771,70.771,0,0,1-23.269.792c-10.955-1.443-21.917-2.6-32.69-5.254C472.094,102.7,466.39,102.2,462.021,101.517Z" transform="translate(35.133 32.414)" fill="#7a4417"/>
    <path id="Path_27" data-name="Path 27" d="M461.562,99.827a90.623,90.623,0,0,1,24.926,2.436,35.879,35.879,0,0,1,9.67,3.547,20.059,20.059,0,0,0,15.179,2.117c4.023-.882,7.962-2.188,11.885-3.466A93.633,93.633,0,0,1,546.444,99.7c3.781-.238,7.543-.839,11.317-1.231,6.7-.7,13.445-.953,19.91,1.241,14.8,5.026,29.637,4.405,44.578.846,5.754-1.369,11.529-2.664,17.337-3.765a45.325,45.325,0,0,1,7.989-.6c5.939-.06,10.542,2.681,13.9,7.4a34.488,34.488,0,0,1,3.785,7.056A93.176,93.176,0,0,0,675.366,129.5c3.238,4.6,5.254,9.616,4.436,15.387a39.143,39.143,0,0,1-1.2,5.543,58.61,58.61,0,0,1-2.312,6.637c-2.506,5.852-1.275,10.965,3.067,15.344a70.123,70.123,0,0,0,8.952,8.033c11.15,7.918,18.555,18.528,23.279,31.187,2.342,6.271,4.711,12.535,6.986,18.833a93.928,93.928,0,0,1,5.385,28.523,56.959,56.959,0,0,0,9.519,29.6c6.9,10.465,6.825,20.883,1.681,31.747a59.347,59.347,0,0,1-11.173,15.79,23.961,23.961,0,0,1-12.227,6.549c-1.956.453-3.912.923-5.888,1.268a33.292,33.292,0,0,0-19.823,11.639c-6.623,7.7-13.149,15.495-19.5,23.423-4.919,6.143-10.19,11.854-16.76,16.253a64.21,64.21,0,0,1-6.3,3.792,27.212,27.212,0,0,0-10.267,8.418c-4.275,6.127-8.288,12.435-12.428,18.655-4.02,6.036-7.865,12.2-12.143,18.041a83.493,83.493,0,0,1-17.712,17.226,41.72,41.72,0,0,1-5.369,3.4c-5.217,2.785-10.5,5.439-15.736,8.187a14.477,14.477,0,0,1-7.71,1.855c-3.9-.228-7.811-.362-11.7-.745a18.737,18.737,0,0,1-9.026-3.322,50.356,50.356,0,0,1-5.795-4.533,45.219,45.219,0,0,0-16.38-10.167,47.107,47.107,0,0,1-16.642-10.374,73.173,73.173,0,0,0-6.737-5.509,33.867,33.867,0,0,1-11.334-14.646c-1.466-3.5-2.973-6.982-4.436-10.482a21.291,21.291,0,0,0-11.18-11.445,66.421,66.421,0,0,0-26.473-6.492c-8.261-.215-16.525-.3-24.785-.466a55.622,55.622,0,0,1-25.1-6.331c-9.975-5.254-19.9-10.6-29.832-15.934-6.989-3.755-11.623-9.7-14.9-16.706a22.685,22.685,0,0,1-1.721-7.408c-.383-4.107-.362-8.247-.527-12.371a6.148,6.148,0,0,0-.228-1.651c-1.564-4.681-1.416-9.415-.715-14.23a60.752,60.752,0,0,1,13.669-31.17c4.61-5.459,9.492-10.7,13.985-16.246,3.292-4.067,6.217-8.432,9.173-12.757a7.745,7.745,0,0,0,.379-8.553c-3.2-5.976-3.309-12.418-2.617-18.941.268-2.553.664-5.09,1.047-7.63,1.01-6.687.523-13.351-.144-20.034-1.634-16.344,1.168-31.835,9.569-46.078,5.842-9.9,11.965-19.638,17.924-29.473,2.429-4.01,5-7.959,7.083-12.143,3.654-7.321,9.475-11.948,16.924-14.891,8.137-3.214,16.629-4.164,25.275-4.271C458.435,99.81,460,99.827,461.562,99.827Zm-1,7.08c-3.087,0-6.895-.2-10.676.044a50.926,50.926,0,0,0-21.464,5.889,18.341,18.341,0,0,0-7.331,7.137q-11.52,20.217-23.121,40.394c-8,13.988-10.478,29.171-8.764,44.944a106.26,106.26,0,0,1-.587,28.339c-.8,5.08-1.02,10.267.741,15.246a17.3,17.3,0,0,1-1.906,16.021c-3.449,5.194-7.15,10.25-11.089,15.082-4.657,5.707-9.73,11.072-14.545,16.652a59.14,59.14,0,0,0-9.069,14.4,14.288,14.288,0,0,0-1.188,7.8,49.153,49.153,0,0,1,.48,7.677c-.228,5.452-.624,10.9-1.124,16.337-.366,4.013.013,7.895,2.134,11.317,3.08,4.972,6.778,9.452,12.092,12.26,10.854,5.741,21.692,11.512,32.59,17.165a44.686,44.686,0,0,0,19.326,4.889c7.925.268,15.85.477,23.775.681a77.1,77.1,0,0,1,32.291,7.8,27.808,27.808,0,0,1,13.72,14.072c1.54,3.466,3.077,6.939,4.5,10.455a28.1,28.1,0,0,0,9.576,12.636,82.947,82.947,0,0,1,7.217,5.976,40.032,40.032,0,0,0,13.82,8.62,51.979,51.979,0,0,1,18.7,11.5,32,32,0,0,0,3.62,2.976c6.4,4.463,13.515,3.677,20.638,2.735a2.846,2.846,0,0,0,.906-.423c5.59-3.033,11.311-5.855,16.733-9.167a69.685,69.685,0,0,0,19.41-17.786c4.278-5.7,7.982-11.834,11.972-17.753,3.865-5.734,7.62-11.556,11.7-17.135a37.446,37.446,0,0,1,16.068-12.76,29.9,29.9,0,0,0,5.449-3.251c4.8-3.349,8.687-7.647,12.482-12.072,7.341-8.559,14.76-17.055,22.336-25.406a39.763,39.763,0,0,1,22.3-12.74c1.862-.359,3.7-.856,5.556-1.235A18,18,0,0,0,720.2,329.9a50.646,50.646,0,0,0,10.338-20.081c1.282-4.912.611-9.529-2.674-13.6a28.925,28.925,0,0,1-1.976-2.7c-5.627-8.861-9.747-18.279-10.764-28.879-.651-6.774-1.074-13.606-2.315-20.279-2.007-10.787-6.1-20.977-10.042-31.187-3.906-10.113-9.777-18.769-18.374-25.5a36,36,0,0,1-4.026-3.53,123.513,123.513,0,0,1-8.506-9.438,18.136,18.136,0,0,1-2.909-17.733c.862-2.533,1.741-5.066,2.735-7.553,2.332-5.818,1.946-11.25-1.684-16.525a98.506,98.506,0,0,1-9.777-19.028,35.08,35.08,0,0,0-3.248-6.214,10.094,10.094,0,0,0-9.032-4.842,42.01,42.01,0,0,0-7.633.738c-4.905,1.064-9.757,2.382-14.609,3.671-16.535,4.389-33.033,5.134-49.5-.346-6.086-2.023-12.334-1.7-18.585-1.043-3.332.352-6.65.835-9.989,1.06a80.71,80.71,0,0,0-18.42,3.241c-5.328,1.647-10.686,3.261-16.129,4.449-6.952,1.523-13.693.983-20.048-2.839a27.54,27.54,0,0,0-7.825-2.775A80.722,80.722,0,0,0,460.565,106.907Z" transform="translate(48.41 54.826)" fill="#7a4417"/>
    <path id="Path_28" data-name="Path 28" d="M452.783,109.409c2.453-.138,4.905-.258,7.358-.413a14.014,14.014,0,0,1,8.962,2.08,14.855,14.855,0,0,0,8.606,2.315,19.919,19.919,0,0,1,15.075,6.07c7.2,7.284,16.115,8.13,25.514,6.16,11.213-2.349,21.658-6.9,31.959-11.807a67.812,67.812,0,0,1,10.821-4.389,34.392,34.392,0,0,1,19.2.074c11.314,3.349,22.544,2.248,33.74-.5a27.468,27.468,0,0,0,4.942-2.01c2.221-1.04,4.352-2.285,6.6-3.258a11.653,11.653,0,0,1,11.23.641c1.433.869,2.973,1.553,4.412,2.406,4.479,2.647,5.362,5.61,2.671,10.026a43.842,43.842,0,0,0-6.227,20.293c-.674,10.368,2.007,19.689,9.338,27.362a53.426,53.426,0,0,1,9.183,12.307,12.653,12.653,0,0,0,7.093,6.3,29.2,29.2,0,0,1,15.891,13.679,49.51,49.51,0,0,0,2.708,4.231,29.769,29.769,0,0,1,5.442,16.635c.218,7.382,2.993,14.149,4.785,21.152a9.156,9.156,0,0,0,1.963,3.463c4.167,4.892,3.99,10.156,1.58,15.676-1.074,2.453-2.238,4.872-3.194,7.372a32.116,32.116,0,0,0-1.567,5.459c-.694,3.644-.3,7,2.3,10.036a46.3,46.3,0,0,1,5.053,7.476c4.1,7.284,2.158,15.072-4.969,19.434a32.382,32.382,0,0,1-8.781,3.993,44.177,44.177,0,0,0-21.051,12.455c-3.426,3.5-6.586,7.281-9.693,11.079a28.957,28.957,0,0,1-8.985,7.345c-9.3,4.946-17.35,11.294-22.514,20.833-2.174,4.013-4.832,7.774-7.382,11.576a24.618,24.618,0,0,1-15.3,10.6,74.817,74.817,0,0,0-10.455,3.5,16.81,16.81,0,0,0-9.985,10.224,55.6,55.6,0,0,1-8.881,15.287,53.361,53.361,0,0,1-5.65,6.154,15.316,15.316,0,0,1-12.559,4.382,13.284,13.284,0,0,0-8.116,1.463c-7.476,4.147-14.307,1.285-21.031-1.916-2.57-1.225-4.221-3.677-5.442-6.214-2.453-5.076-5.9-9.422-9.294-13.871a49.217,49.217,0,0,1-6.1-10.713c-2.469-5.868-5.536-11.082-10.6-15.176a101.912,101.912,0,0,1-9.764-9.65c-3.51-3.731-7.627-5.664-12.814-5.322a55.835,55.835,0,0,1-13.978-1.064,23.983,23.983,0,0,0-8.291.087,15.019,15.019,0,0,1-12.512-3.3c-3.255-2.587-6.7-4.9-10.864-5.724-8.355-1.647-16.76-2.761-25.272-1.268a23.232,23.232,0,0,1-13.122-1.325A62.016,62.016,0,0,0,374.588,348a19.85,19.85,0,0,1-11.629-6.788,20.445,20.445,0,0,0-9.858-7.143c-3.151-.973-4.419-3.459-4.623-6.355-.644-9.143-1.064-18.306,1.349-27.305a20.052,20.052,0,0,1,7.341-10.878,96.889,96.889,0,0,0,27.483-33.707c1.634-3.3,3.083-6.7,4.778-9.965a20.9,20.9,0,0,0,2.158-12.025,99.973,99.973,0,0,1,.564-21.39c.728-6.492.7-12.9-1.272-19.229a32.051,32.051,0,0,1,1.181-22.262c4.137-10.217,9.21-19.84,16.588-28.131.893-1,1.7-2.07,2.57-3.09a14.917,14.917,0,0,0,3.486-7.482,20.626,20.626,0,0,1,7.623-12.992c1.99-1.621,4.006-3.218,6.117-4.677a27.577,27.577,0,0,1,17.635-5.261c2.228.124,4.466.02,6.7.02Zm-99.2,220.307c5.868.916,9.794,4.372,13.233,8.687a14.781,14.781,0,0,0,7.875,4.811c4.714,1.325,9.4,2.758,14.042,4.332a13.366,13.366,0,0,0,7.234.718c6.325-1.376,12.643-.953,19-.342,8.294.8,16,2.959,22.447,8.566a9.366,9.366,0,0,0,8.445,2.124,28.852,28.852,0,0,1,12.931.493,25.4,25.4,0,0,0,5.989.349c2.567-.01,5.134-.232,7.7-.255a25.651,25.651,0,0,1,15.428,4.758c3.731,2.651,7.338,5.472,10.965,8.264a29.978,29.978,0,0,1,10.385,14.874,56.984,56.984,0,0,0,3.027,8.506c3.721,7.237,7.536,14.411,10.78,21.9,1.882,4.332,10.5,7.72,15.069,6.506a14.332,14.332,0,0,0,2.469-1.017c1.107-.53,2.188-1.121,3.275-1.688a12.232,12.232,0,0,1,7.445-1.483c4.154.6,7.439-.946,10.277-3.741a46.4,46.4,0,0,0,3.808-4.228,55.665,55.665,0,0,0,8.731-14.606c2.409-6.325,6.942-10.549,13.062-13.176,1.845-.792,3.731-1.49,5.607-2.194,2.09-.788,4.181-1.567,6.291-2.3a21.965,21.965,0,0,0,11.7-9.536c2.536-4.077,5.123-8.12,7.606-12.23a39.526,39.526,0,0,1,7.717-9.63c4.047-3.513,8.174-6.935,12.163-10.512,3.067-2.748,6.14-5.526,8.922-8.559a56.1,56.1,0,0,1,14.478-11.777c4.023-2.181,8.009-4.446,12.14-6.412a48.765,48.765,0,0,1,8.462-3.077,32.137,32.137,0,0,0,9.657-4.5,7.507,7.507,0,0,0,3.479-6.492,12.039,12.039,0,0,0-1.6-6.744c-1.215-2.007-2.345-4.067-3.671-6a15.919,15.919,0,0,1-2.238-13.75c1.168-4.3,2.577-8.539,4.073-12.737s.684-7.667-2.084-11.183c-6.456-8.2-11.156-17.2-11.371-28a24.858,24.858,0,0,0-4.08-13.277,50.233,50.233,0,0,1-3.174-5.513,22.288,22.288,0,0,0-10.089-10.368,18.477,18.477,0,0,1-8.656-9.435,52.429,52.429,0,0,0-8.955-13.666,35.09,35.09,0,0,1-7.083-12.428c-4.134-13.1-2.607-25.557,4.194-37.428.648-1.127,1.221-2.3,1.956-3.691-2.677-1.329-5.1-2.412-7.405-3.711a6.111,6.111,0,0,0-6.643.138c-.859.52-1.772.956-2.607,1.513a40.1,40.1,0,0,1-15.186,5.852c-10.472,1.946-20.843,2.5-31.06-1.218-8.277-3.013-16.243-2.05-23.987,1.8-4,1.99-7.915,4.137-11.931,6.083-7.754,3.761-15.719,7-24.228,8.61-11.73,2.228-22.49.557-31.271-8.324a13.293,13.293,0,0,0-9.911-4.073,20.334,20.334,0,0,1-11.485-3.083,10.1,10.1,0,0,0-6.348-1.6c-4.9.228-9.818.51-14.723.429a21.4,21.4,0,0,0-12.676,3.557c-2.587,1.741-5.1,3.614-7.506,5.6A12.148,12.148,0,0,0,421,131.755c-.829,5.966-4,10.542-7.895,14.82-7.311,8.033-12.482,17.36-16.528,27.379-2.312,5.724-2.852,11.525-.688,17.32,2.738,7.318,2.808,14.783,2.369,22.44-.359,6.217.01,12.478.134,18.719.1,4.788.825,9.623-1.127,14.226-4.5,10.606-9.334,21.007-16.9,29.909-6.083,7.16-12.1,14.347-20.051,19.591a12.093,12.093,0,0,0-4.727,7.11C353.1,311.883,353.514,320.694,353.581,329.716Z" transform="translate(57.547 69.895)" fill="#7a4417"/>
    <path id="Path_29" data-name="Path 29" d="M659.8,273.936a25.393,25.393,0,0,0-16.76,5.412,84.641,84.641,0,0,0-16.823,16.223,113.16,113.16,0,0,1-24.641,23.957A73.923,73.923,0,0,0,584.7,336.159a46.083,46.083,0,0,1-9.952,9.864c-2.063,1.53-4.08,3.13-6,4.835a62.657,62.657,0,0,1-14.542,10.089,17.074,17.074,0,0,0-8.948,9.915,22.419,22.419,0,0,1-1.9,4.275,18.429,18.429,0,0,1-3.731,4.64,52.431,52.431,0,0,1-7.858,5.09c-4.791,2.56-9.106,1.409-11.673-3.355a62.671,62.671,0,0,1-3.929-9.922c-1.8-5.392-3.292-10.891-5.127-16.27a51.712,51.712,0,0,0-3.382-7.268,16.6,16.6,0,0,0-11.093-8.979,21.105,21.105,0,0,1-9.516-5.389,31.906,31.906,0,0,0-12.012-7.08c-3.489-1.164-6.909-2.567-10.284-4.036a26.071,26.071,0,0,0-16.4-1.436,36.411,36.411,0,0,1-19.816-.715c-2.738-.913-5.66-1.258-8.479-1.949-5.412-1.325-10.858-2.563-16.2-4.124-3.956-1.154-7.633-1.322-11.257.943-7.68,4.8-15.256,3.795-22.829-.409-3.11-1.728-6.412-3.107-9.6-4.7a44.665,44.665,0,0,1-5.734-3.174,4.087,4.087,0,0,1-1.07-2.657,19.02,19.02,0,0,1,3.245-12.737,91.39,91.39,0,0,1,8.761-11.374,109.794,109.794,0,0,1,19.367-16.451,31.536,31.536,0,0,0,9.506-9.754q5-8.319,9.861-16.719a8.264,8.264,0,0,0,.332-7.744c-4.939-11.324-3.644-22.443,1.047-33.459,1.443-3.389,2.939-6.754,4.4-10.136a18.267,18.267,0,0,0,.195-14.642,74.277,74.277,0,0,1-4.835-17.031c-1.02-7.019.386-13.22,5.227-18.652a107.677,107.677,0,0,1,18.44-15.964,18.032,18.032,0,0,1,15.911-2.808,18.415,18.415,0,0,0,5.969.638c5.275-.362,9.277,1.617,12.5,5.717,3.325,4.228,7.858,6.1,13.2,6.1.446,0,.893.06,1.339.044a37.33,37.33,0,0,1,17.854,3.694c4.855,2.339,9.925,2.426,15.052,1.134a62.581,62.581,0,0,0,7.029-2.174c15.424-5.905,30.852-11.8,46.216-17.863a36.354,36.354,0,0,1,13.33-2.718c6.133-.037,12.263-.537,18.4-.765a49.531,49.531,0,0,1,6.352.134c2.979.275,4.335,1.762,4.463,4.818a23.784,23.784,0,0,1-.3,4.332c-.278,1.986-.658,3.963-1.054,5.932-1.533,7.623,1.4,13.545,7.053,18.38,1.778,1.52,3.718,2.855,5.593,4.265,1.785,1.339,3.627,2.607,5.365,4.006a21.5,21.5,0,0,1,7.143,10.327c2.946,9.227,7.546,17.565,12.877,25.614,2.943,4.439,5.157,9.375,7.543,14.163,1.842,3.694,3.231,7.62,5.184,11.244a28.591,28.591,0,0,1,2.755,18.86,13.712,13.712,0,0,0,1.809,9.21c3.114,5.912,5.818,12.049,8.509,18.172,1.245,2.832,1.057,5.932.5,8.915a5.676,5.676,0,0,1-5.6,4.862C662.575,274.023,661.23,273.936,659.8,273.936Zm4.372-5.4a24.742,24.742,0,0,0-1.255-4.748c-3.261-6.469-5.754-13.344-10.083-19.253a15.955,15.955,0,0,1-2.909-10.76c.114-1.9.208-3.791.332-5.684a20.235,20.235,0,0,0-2.191-10.344c-1.5-3.107-2.59-6.412-3.936-9.6-2.993-7.086-6.086-14.129-9.039-21.232-3.083-7.408-6.127-14.834-9.029-22.313a19.3,19.3,0,0,0-6.036-8.667c-2.117-1.641-4.412-3.067-6.442-4.8a81.982,81.982,0,0,1-8.539-7.952,18.437,18.437,0,0,1-4.58-14.6c.292-2.657.819-5.288,1.185-7.935.225-1.611.339-3.234.547-5.271-1.7.339-2.875.577-4.046.809-5.036.99-10.039,2.52-15.116,2.835-7.784.483-15.236,1.809-22.282,5.191a15.085,15.085,0,0,1-1.9.664c-13.676,4.469-27.342,8.979-41.045,13.381-5.234,1.684-10.626,2.993-16.129,1.694a57.524,57.524,0,0,1-9.754-3.4,28.158,28.158,0,0,0-12.307-2.711,41.874,41.874,0,0,1-4.352-.1c-5.972-.436-10.982-2.771-14.693-7.6-.547-.711-1.131-1.389-1.647-2.117a8.224,8.224,0,0,0-6.848-3.54,36.144,36.144,0,0,1-7.627-.889,15.283,15.283,0,0,0-13.069,2.322,72.441,72.441,0,0,0-17.726,17.145,11.4,11.4,0,0,0-2.231,9.177,64.065,64.065,0,0,0,1.986,8.435c1.4,4.117,3.124,8.123,4.734,12.166a22.848,22.848,0,0,1-.916,19.44c-1.845,3.694-3.795,7.338-5.8,10.948-5.016,9.049-6,18.333-1.819,27.97a14.293,14.293,0,0,1-.463,12.921c-2.241,4.241-4.61,8.415-7.026,12.555-3.553,6.1-8.633,10.683-14.263,14.864-6.264,4.654-12.384,9.539-18.2,14.733a89.922,89.922,0,0,0-10.327,11.384,23.88,23.88,0,0,0-3.5,7.133c-1.114,3.268-.185,4.419,3.127,5.2a132.884,132.884,0,0,1,13.867,3.607c6.348,2.248,12.26,2.694,18.239-1.121,4.181-2.671,8.838-2.527,13.589-1.235,6.56,1.782,13.2,3.278,19.8,4.905a59.357,59.357,0,0,1,6.791,1.772,30.968,30.968,0,0,0,16.488,1.352,27.879,27.879,0,0,1,16.34,2.225c5.3,2.359,10.68,4.566,15.86,7.163a25.807,25.807,0,0,1,7.3,5.164,28.2,28.2,0,0,0,11.428,7.885,18.16,18.16,0,0,1,9.938,8.556c4.852,8.536,9.787,17.031,12.951,26.409a27.566,27.566,0,0,0,2.7,5.724c1.332,2.137,2.765,2.342,4.764.805,4.238-3.251,8.392-6.429,10.13-12.019a18.827,18.827,0,0,1,9.019-11.25,68.384,68.384,0,0,0,13.881-10.432,49.716,49.716,0,0,1,5.382-4.526,64.13,64.13,0,0,0,12.955-12.512A62.021,62.021,0,0,1,597.5,313.6a90.949,90.949,0,0,0,25.638-21.752c4.389-5.405,9.643-9.881,14.991-14.31a34.617,34.617,0,0,1,21.769-8.3A34.084,34.084,0,0,0,664.172,268.54Z" transform="translate(69.981 88.851)" fill="#7a4417"/>
    <path id="Path_30" data-name="Path 30" d="M361.216,288.171a23.246,23.246,0,0,0-.993-3.657,4.728,4.728,0,0,1,.544-5.335c1.835-2.238,3.758-4.4,5.674-6.57.513-.58,1.215-1,1.718-1.59,7.72-9.046,17.491-15.525,27.349-21.9,5.06-3.271,10.18-6.455,15.176-9.831a77.548,77.548,0,0,0,6.519-5.228,5.533,5.533,0,0,0,1.98-5.08c-.433-4.228-.836-8.469-2.842-12.321-3.047-5.845-3.013-12.032-2.1-18.306.366-2.54,1.017-5.036,1.382-7.573a31.832,31.832,0,0,0-.832-13.247c-2.3-8.274-4.248-16.642-6.435-24.95a11.111,11.111,0,0,1,.973-8.418,53.881,53.881,0,0,0,5.348-13.636c1.637-7.163,11.609-13,18.7-11.28a10.694,10.694,0,0,1,4.285,2.429,34.055,34.055,0,0,1,4.208,4.754,44.207,44.207,0,0,0,12.468,11.035c5.083,3.023,10.2,6,15.3,8.982a26.856,26.856,0,0,0,14.075,3.506,63.2,63.2,0,0,0,34.224-10c5.184-3.258,10.74-5.922,16.058-8.979,3.285-1.889,6.432-4.02,9.653-6.023,3.315-2.06,6.553-4.271,10.005-6.07A20.165,20.165,0,0,1,560,117.029c2.865-.419,5.107.906,6.972,3.147a59.033,59.033,0,0,0,6.593,7.066,17.986,17.986,0,0,1,6.573,14.079c.027,2.567.107,5.137.087,7.7a17.134,17.134,0,0,0,2.392,9.294,71.564,71.564,0,0,0,6.939,9.8,15.322,15.322,0,0,0,6.3,4.221c6.986,2.355,11.371,6.59,12.559,14.109a15.373,15.373,0,0,0,5.482,9,21.62,21.62,0,0,1,5.013,7.016,37.662,37.662,0,0,0,4.228,6.375,26.437,26.437,0,0,1,5.919,17.716,16.043,16.043,0,0,1-1.57,6.392,33.919,33.919,0,0,1-12.9,14.179c-2.292,1.386-4.647,2.657-6.965,4-4.053,2.352-8.123,4.674-12.139,7.09a22.032,22.032,0,0,0-8.163,8.677q-2.521,4.726-5.08,9.432a37.863,37.863,0,0,1-14,14.528,116.611,116.611,0,0,1-23.286,10.955c-8.761,2.946-14.33,8.657-17.575,17.068-1.325,3.429-2.825,6.8-4.365,10.14a14.269,14.269,0,0,1-2.456,3.936c-2.8,2.906-6.6,2.47-8.774-.9a28.177,28.177,0,0,1-1.983-3.869c-3-6.821-7.445-12.686-12.119-18.4a22.145,22.145,0,0,0-7.825-6.184,85.563,85.563,0,0,1-18.152-11.3c-6.784-5.536-14.649-7.368-23.161-7.009a29.036,29.036,0,0,0-5.56,1.07c-1.949.473-3.862,1.1-5.791,1.641a12.721,12.721,0,0,1-10.287-1.59c-1.634-.966-3.2-2.033-4.8-3.053a20.773,20.773,0,0,0-11.371-3.469c-4.241.01-8.482.107-12.723.218a19.983,19.983,0,0,0-10.4,3.3,39.042,39.042,0,0,1-5.2,3.026,25.114,25.114,0,0,1-5.392,1.594c-2.842.557-5.717.929-8.586,1.329-1.792.248-3.523.278-5.1-.98C362.866,288.024,361.947,288.228,361.216,288.171Zm155.849,37.666c.426-.725.909-1.456,1.3-2.231q2.854-5.687,5.66-11.394c3.406-6.9,8.472-11.962,15.823-14.605a76.974,76.974,0,0,0,7.747-3.161c6.113-2.98,12.223-5.976,18.2-9.207a29.017,29.017,0,0,0,11.21-11.267c1.4-2.412,2.815-4.828,4.04-7.331a33.355,33.355,0,0,1,14.32-15.015c3.818-2.09,7.563-4.315,11.327-6.5,1.933-1.121,3.875-2.225,5.748-3.439a21.407,21.407,0,0,0,7.519-7.942,6.069,6.069,0,0,0,.936-3.11c-.684-6.788-1.409-13.559-6.318-19.011a13.847,13.847,0,0,1-3.241-8.274,9.853,9.853,0,0,0-1.745-4.919,34.677,34.677,0,0,1-6.761-14.414,7.417,7.417,0,0,0-4.818-5.58,45.1,45.1,0,0,1-5.459-2.543,23.6,23.6,0,0,1-5.194-3.6,44.069,44.069,0,0,1-9.442-13.71,20.384,20.384,0,0,1-1.772-8.787c.138-3.456.305-6.915.383-10.374s-.638-6.724-3.285-9.173c-2.453-2.275-5.07-4.372-7.61-6.549-1.688-1.443-3.345-1.369-5.184-.164-4.479,2.936-9.012,5.795-13.549,8.643-2.929,1.842-5.832,3.738-8.865,5.392-6.264,3.422-12.552,6.815-18.94,10a128.089,128.089,0,0,1-12.861,5.61c-7.177,2.641-14.686,2.312-22.192,2.08a32.385,32.385,0,0,1-16.2-4.694q-8.148-4.972-16.189-10.116a50.388,50.388,0,0,1-12.814-11.676,23.62,23.62,0,0,0-3.335-3.734,6.715,6.715,0,0,0-3.245-1.439c-4.073-.564-12.743,4.456-13.112,9.955-.171,2.577-1.469,5.11-2.459,7.586-.742,1.855-1.792,3.59-2.718,5.375a4.88,4.88,0,0,0-.279,4.177c2.986,8.173,5.721,16.441,8.908,24.53a31.75,31.75,0,0,1,2.04,16.726c-.3,1.983-.755,3.942-1.158,5.912-1.117,5.446-1.2,10.757.758,16.139,3.775,10.371.849,19.729-7.9,26.342-1.782,1.345-3.594,2.661-5.476,3.855-4.526,2.869-9.193,5.523-13.636,8.509-6.848,4.6-13.562,9.412-20.329,14.136-5.154,3.6-8.445,8.818-11.988,13.817-.637.9-1.044,1.913-.148,2.7a2.946,2.946,0,0,0,2.312.678c6.046-1.788,12.461-2.376,17.8-6.378a21.6,21.6,0,0,1,12.552-4.124c3.459-.1,6.919-.2,10.371-.416a30.318,30.318,0,0,1,20.212,5.714,10.943,10.943,0,0,0,11.334,1.329c6.325-2.53,12.911-2.178,19.491-1.3,7.1.949,13.045,4.412,18.545,8.757a72.526,72.526,0,0,0,14.481,8.979,33.675,33.675,0,0,1,12.858,10.468c1.684,2.225,3.463,4.392,4.976,6.731C512.216,317.715,514.565,321.734,517.064,325.838Z" transform="translate(85.039 103.712)" fill="#7a4417"/>
    <path id="Path_31" data-name="Path 31" d="M524.134,152.5c0,2.9-.037,5.8.007,8.707.114,7.177,3.543,12.354,9.868,15.495a50.545,50.545,0,0,0,8.777,3.228,23.836,23.836,0,0,1,12.019,7.466,33.058,33.058,0,0,0,7.261,5.845c3.312,2.117,4.771,4.905,5.167,8.794,1.067,10.4-2.9,15.844-11.7,20.39-1.386.718-2.805,1.386-4.248,1.976q-8.984,3.684-17.991,7.3c-3.932,1.587-7.888,3.11-11.807,4.738a25.732,25.732,0,0,0-13.857,12.9c-5.523,11.284-14.663,19.561-24.047,27.53a16.907,16.907,0,0,1-8.5,3.7,8.5,8.5,0,0,1-8.626-3.211,72.228,72.228,0,0,1-4.513-6.231,10.462,10.462,0,0,0-6.4-5.009,15.406,15.406,0,0,1-7.533-4.795,30.7,30.7,0,0,0-8.895-6.409,95.227,95.227,0,0,1-11.066-6.878,22.192,22.192,0,0,0-11.116-4.2c-4-.386-7.992-.839-11.985-1.292a14.236,14.236,0,0,0-7.546.953c-5.885,2.607-11.854,1.255-17.776.215a3.01,3.01,0,0,1-2.775-3.235,3.951,3.951,0,0,1,3.63-3.338,34.242,34.242,0,0,0,3.956-.309,8.214,8.214,0,0,0,2.99-1.329c5.16-3.711,10.16-7.66,15.421-11.217,7.049-4.764,13.049-10.465,17.367-17.84a28.557,28.557,0,0,0,1.537-2.969c1.127-2.577,1.047-5.029-1.1-7.073a76.977,76.977,0,0,0-7.419-6.721,28.265,28.265,0,0,1-9.646-11.331,48.1,48.1,0,0,0-8.311-13.274c-2.6-2.812-3.55-6.382-4.238-10.046-.862-4.6-1.889-9.18-2.617-13.8a22.738,22.738,0,0,1-.211-6.969c.886-5.57,6.456-7.791,10.435-3.865,4.718,4.654,10.254,7.365,16.384,9.308a31.731,31.731,0,0,1,5.224,2.241c6.771,3.583,13.995,4.362,21.474,3.644,6.492-.621,12.9-.641,19.212,1.47a12.553,12.553,0,0,0,10.66-1.262,85.365,85.365,0,0,0,7.563-4.926,44.893,44.893,0,0,1,13.025-6.633c5.8-1.909,11.307-4.724,16.937-7.16a45.115,45.115,0,0,1,4.275-1.9c2.342-.738,3.8.02,4.909,2.221,1.355,2.684,2.882,5.291,4.043,8.056a23.116,23.116,0,0,1,1.9,6.677c.315,3.429.081,6.912.081,10.371ZM394.785,133.307c-1.4,2.57-1.584,3.546-.963,6.231,1.278,5.546,2.516,11.106,4.016,16.592a13.164,13.164,0,0,0,2.734,5.281,44.928,44.928,0,0,1,8.717,14.948,19.937,19.937,0,0,0,6.284,8.519,29.522,29.522,0,0,1,3.966,3.594c5.613,6.63,7.294,12.113,3.53,19.534a43.335,43.335,0,0,1-11.036,14.163c-3.1,2.547-6.466,4.768-9.74,7.093-4.677,3.328-9.385,6.617-14.418,10.16a11.811,11.811,0,0,0,7.69-.718,19.581,19.581,0,0,1,10.173-1.3c4.2.554,8.422,1.05,12.65,1.4a24.958,24.958,0,0,1,12.629,4.872,96.259,96.259,0,0,0,10.8,6.674,32.867,32.867,0,0,1,9.7,7.012,11.617,11.617,0,0,0,6.17,3.8,13.1,13.1,0,0,1,8.177,5.956c1.288,1.953,2.768,3.778,4.144,5.677a3.761,3.761,0,0,0,5.006,1.4,25.98,25.98,0,0,0,6.526-3.919c4-3.714,7.62-7.845,11.482-11.717a42.509,42.509,0,0,0,8.9-12.475c3.4-7.516,9.093-12.572,16.555-15.8,1.537-.664,3.057-1.376,4.607-2,4.966-2.007,9.979-3.909,14.911-6s9.868-4.194,14.669-6.56c5.311-2.617,8.465-6.684,8.1-13.039a6.327,6.327,0,0,0-2.584-5.043,74.543,74.543,0,0,1-8.039-7.529,16.262,16.262,0,0,0-7.08-4.828c-3.074-1.01-6.174-1.98-9.143-3.248-9.458-4.043-14.572-11.123-14.545-21.578a114.664,114.664,0,0,1,.362-12.716c.752-6.583-2.027-11.841-5.429-17.075a121.7,121.7,0,0,1-24.1,10.1,17.948,17.948,0,0,0-4.7,2.5c-2.8,1.832-5.489,3.838-8.274,5.7-6.029,4.03-12.5,5.187-19.461,2.808a25.548,25.548,0,0,0-9.576-1.2c-2.456.117-4.909.235-7.362.372a41.5,41.5,0,0,1-21.145-3.963c-3.892-1.923-7.969-3.49-12.022-5.073a26.835,26.835,0,0,1-9.589-5.966A37.059,37.059,0,0,0,394.785,133.307Z" transform="translate(125.548 122.433)" fill="#7a4417"/>
    <path id="Path_32" data-name="Path 32" d="M392.028,215.932l-2.677.265c5.7-3.691,8.167-9.294,10.046-15.391,1.577-5.113,3.607-10.086,5.234-15.186,2.3-7.18,1.839-14.153-2.52-20.5a43.914,43.914,0,0,0-5.164-5.687,22.643,22.643,0,0,1-5.788-8.9,15.782,15.782,0,0,1-.8-3.58c-.211-2.761,1.05-4.13,3.734-3.741,6.419.936,12.911,1.929,18.417,5.647,7.65,5.167,15.776,5.543,24.373,3.281A67.251,67.251,0,0,0,463.2,138.7c2.657-2.215,5.405-4.335,8.247-6.3,3.295-2.275,5.288-1.688,7.489,1.684,3.59,5.5,4.006,11.448,2.879,17.709q-1.007,5.592-1.7,11.243c-.537,4.4,1.493,7.637,5.224,9.673,2.53,1.376,5.331,2.245,7.989,3.392,4.8,2.08,9.626,4.13,14.367,6.352a12.549,12.549,0,0,1,3.724,2.792c3.523,3.761,2.768,8.65-1.926,10.723a33.956,33.956,0,0,1-9.318,2.419c-4.2.533-8.465.473-12.7.738-10.133.631-19.242,3.761-26.544,11.139-3.513,3.553-6.08,7.489-6.761,12.723-.7,5.342-4.117,9.348-8.371,12.452a9.562,9.562,0,0,1-4.707,1.443,22.212,22.212,0,0,1-15.2-4.06c-1.449-1.043-2.882-2.117-4.244-3.271a29.054,29.054,0,0,0-15.776-6.737q-1.827-.211-3.661-.406C397.732,221.945,394.065,220.163,392.028,215.932Zm4.211-2.339c1.715,2.134,3.728,2.583,5.872,2.832,2.879.329,5.784.57,8.613,1.164a33.483,33.483,0,0,1,14.518,7.274,42.548,42.548,0,0,0,7.922,5.526c3.338,1.651,7.338,2.376,10.69.661a11.829,11.829,0,0,0,6.573-8.841c.658-5.295,3.127-9.479,6.546-13.263A40.308,40.308,0,0,1,482.6,195.73c5.855-.731,11.8-.715,17.686-1.305a20.592,20.592,0,0,0,6.674-1.919c2.439-1.168,2.516-3.13.258-4.644a21.056,21.056,0,0,0-5.16-2.275c-4.238-1.392-8.586-2.469-12.763-4.023a41.471,41.471,0,0,1-8.65-4.288,14.237,14.237,0,0,1-6.7-13.089,64.893,64.893,0,0,1,.567-6.66c.517-3.416,1.275-6.8,1.822-10.21a14.623,14.623,0,0,0-2.067-10.163c-.346.044-.607,0-.765.111-1.832,1.275-3.624,2.607-5.469,3.859-9.563,6.486-19.555,12.069-30.936,14.767-9.036,2.144-17.689,1.876-25.728-3.479a29.7,29.7,0,0,0-11.532-4.291q-2.013-.352-4.026-.7l-.4.688a57.2,57.2,0,0,0,3.292,4.912c1.483,1.805,3.312,3.325,4.8,5.127a39.808,39.808,0,0,1,4.7,6.456c3.872,7.328,3.976,15.008,1.218,22.705-1.731,4.828-3.849,9.516-5.667,14.314C402.084,206.038,400.252,210.329,396.239,213.594Z" transform="translate(154.992 136.89)" fill="#7a4417"/>
    <path id="Path_33" data-name="Path 33" d="M437.558,141.205c2.644-.245,5.291-.5,7.939-.721a20.355,20.355,0,0,1,2.674-.111c3.4.154,4.52,1.181,5.07,4.556.161.993.346,1.983.477,2.976a8.358,8.358,0,0,0,4.07,6.6c3.114,1.772,3.674,5.436,1.044,8.606a10.954,10.954,0,0,1-6.64,4.2c-1.537.265-3.05.671-4.57,1.03a13.047,13.047,0,0,0-6.345,3.547c-4.664,4.64-9.885,8.74-13.7,14.2a5.264,5.264,0,0,1-1.154,1.208c-6.825,5.036-14.176,8.475-22.95,7.11a6,6,0,0,1-3.389-1.886c-4.369-5.231-4.292-11.076-.44-16.635a7.085,7.085,0,0,0,1.332-3.134c.832-5.4,1.647-10.8,2.587-16.186a12.082,12.082,0,0,1,9.284-10.294c5.472-1.527,10.864-3.352,16.37-4.741,2.667-.671,5.513-.641,8.281-.929Zm12.247,3.412a7.62,7.62,0,0,0-5.66.55,16.279,16.279,0,0,1-4.355,1.654c-5.291.8-10.6,1.621-15.934,1.98a56.874,56.874,0,0,0-12.069,2.54,5.846,5.846,0,0,0-4.251,3.909A76.176,76.176,0,0,0,405,164.239c-1.168,6.133-2.077,12.317-3.063,18.484a20.894,20.894,0,0,0-.319,3.325c0,1.2.53,2.386,1.8,2.476,2.761.191,5.654.607,8.288.02,3.218-.718,6.261-2.3,9.308-3.664a10.665,10.665,0,0,0,2.929-2.188q7.071-6.885,14.052-13.861a18.377,18.377,0,0,1,9.586-5.144c1.312-.265,2.637-.507,3.912-.9a6.192,6.192,0,0,0,4.587-4.66C451.519,154.851,450.2,149.956,449.8,144.617ZM400.137,179c-.849,1.416-1.708,2.828,0,4.452Z" transform="translate(172.487 158.848)" fill="#7a4417"/>
    <path id="Path_34" data-name="Path 34" d="M401.174,171.48a7.258,7.258,0,0,1-.148-7.643c2.319-4.436,4.466-9,7.2-13.169,2.345-3.58,6.318-5.385,10.421-6.026a42.54,42.54,0,0,1,10.633-.091c4.731.466,5.919,3.473,2.919,7.12a67.921,67.921,0,0,1-8.147,8.811c-4.217,3.577-8.261,7.442-13.334,9.952a8.667,8.667,0,0,1-5.4,1.084A29.448,29.448,0,0,0,401.174,171.48Zm4.634-3.526c1.02.738,2.053.309,3.087-.544,3.681-3.047,7.573-5.865,11.009-9.163,3.01-2.882,5.513-6.291,8.281-9.522-6.872-2.781-16.172.362-18.531,6.388A38.072,38.072,0,0,1,407.7,158.6a7.726,7.726,0,0,0-.8,2.141C406.5,162.991,406.207,165.259,405.807,167.953Z" transform="translate(180.1 168.035)" fill="#7a4417"/>
  </g>
</svg>
