<svg xmlns="http://www.w3.org/2000/svg" width="10" height="10" viewBox="0 0 10 10">
  <g id="Group_3243" data-name="Group 3243" transform="translate(0 0)">
    <path id="mini_arrow_shack" d="M4.167,8a.849.849,0,0,0,.589-.234.777.777,0,0,0,0-1.131L2.012,4,4.756,1.366a.777.777,0,0,0,0-1.131.858.858,0,0,0-1.178,0L.244,3.434a.777.777,0,0,0,0,1.131l3.333,3.2A.85.85,0,0,0,4.167,8Z" transform="translate(10 5.657) rotate(135)" fill="#66615c"/>
    <rect id="Rectangle_704" data-name="Rectangle 704" width="8" height="2" rx="1" transform="translate(7.071 4.343) rotate(135)" fill="#66615c"/>
  </g>
</svg>
