<svg xmlns="http://www.w3.org/2000/svg" width="74" height="74" viewBox="0 0 74 74">
  <g id="Group_3240" data-name="Group 3240" transform="translate(-534.5 -698.782)">
    <path id="Path_11493" data-name="Path 11493" d="M-7076.205,2374.249l-.668,2.311,3.792,2.959s-1.282,4.076-1.882,4.328-4.945,1.593-4.945,1.593l-5.815-1.593-2.4-2.266s.968-3.942,1.658-4.448l1.512-2.883Z" transform="translate(7623.118 -1672.583)" fill="#d36301" opacity="0.249"/>
    <path id="Path_11498" data-name="Path 11498" d="M-7076.205,2374.249l-.668,2.311,3.792,2.959s-1.282,4.076-1.882,4.328-4.945,1.593-4.945,1.593l-5.815-1.593-2.4-2.266s.968-3.942,1.658-4.448l1.512-2.883Z" transform="translate(7681.118 -1672.583)" fill="#d36301" opacity="0.249"/>
    <path id="Path_11502" data-name="Path 11502" d="M-7076.205,2374.249l-.668,2.311,3.792,2.959s-1.282,4.076-1.882,4.328-4.945,1.593-4.945,1.593l-5.815-1.593-2.4-2.266s.968-3.942,1.658-4.448l1.512-2.883,5.906-7.29Z" transform="translate(7652.118 -1631.583)" fill="#fe6500" opacity="0.249"/>
    <path id="Path_11499" data-name="Path 11499" d="M-7076.205,2374.249l-.668,2.311,3.792,2.959s-1.282,4.076-1.882,4.328-4.945,1.593-4.945,1.593l-5.815-1.593-2.4-2.266s.968-3.942,1.658-4.448l1.512-2.883Z" transform="translate(7681.118 -1615.583)" fill="#d36301" opacity="0.249"/>
    <path id="Path_11500" data-name="Path 11500" d="M-7076.205,2374.249l-.668,2.311,3.792,2.959s-1.282,4.076-1.882,4.328-4.945,1.593-4.945,1.593l-5.815-1.593-2.4-2.266s.968-3.942,1.658-4.448l1.512-2.883Z" transform="translate(7625.118 -1615.583)" fill="#d36301" opacity="0.249"/>
    <g id="area" transform="translate(535 699.282)">
      <g id="Group_3158" data-name="Group 3158">
        <path id="Path_11497" data-name="Path 11497" d="M71.193,14.85A1.822,1.822,0,0,0,73,13.061V1.807A1.8,1.8,0,0,0,71.193,0H59.939A1.8,1.8,0,0,0,58.15,1.807V5.725H14.85V1.807A1.822,1.822,0,0,0,13.061,0H1.807A1.825,1.825,0,0,0,0,1.807V13.061A1.8,1.8,0,0,0,1.807,14.85H5.725v43.3H1.807A1.822,1.822,0,0,0,0,59.939V71.193A1.825,1.825,0,0,0,1.807,73H13.061a1.8,1.8,0,0,0,1.789-1.807V67.275h43.3v3.918A1.822,1.822,0,0,0,59.939,73H71.193A1.825,1.825,0,0,0,73,71.193V59.939a1.8,1.8,0,0,0-1.807-1.789H67.275V14.85ZM3.578,11.272V3.578h7.694v7.694Zm7.694,58.15H3.578V61.728h7.694ZM58.15,59.939V63.7H14.85V59.939a1.794,1.794,0,0,0-1.789-1.789H9.3V14.85h3.757a1.794,1.794,0,0,0,1.789-1.789V9.3h43.3v3.757a1.794,1.794,0,0,0,1.789,1.789H63.7v43.3H59.939A1.794,1.794,0,0,0,58.15,59.939Zm11.272,1.789v7.694H61.728V61.728ZM61.728,11.272V3.578h7.694v7.694Z" fill="#d36301" stroke="#d36301" stroke-width="1"/>
      </g>
    </g>
    <g id="fire_1_" data-name="fire (1)" transform="translate(457.79 590)">
      <path id="Path_11501" data-name="Path 11501" d="M112.261,21.534c-.485-1.123-1.148-2.408-1.85-3.769a48.278,48.278,0,0,1-3.739-8.56c-.884-3.137-.727-5.539.481-7.343A1.2,1.2,0,0,0,105.878.034c-.226.055-5.573,1.39-8.157,5.715a9.545,9.545,0,0,0-1.352,4.774,6.383,6.383,0,0,0-2.454-1.244,1.2,1.2,0,0,0-1.415,1.33c.42,3.2-1.018,5.322-2.684,7.78a30.018,30.018,0,0,0-2.263,3.728c-1.777,3.647-1.488,7.567.858,11.65a14.046,14.046,0,0,0,12.15,7.061,13.784,13.784,0,0,0,3.563-.469c.091-.024.182-.048.272-.075a12.473,12.473,0,0,0,7.738-6.808,14.843,14.843,0,0,0,.126-11.94ZM96.269,36.726a5.323,5.323,0,0,1-1.289-4.153c.178-1.545,1.537-3.328,2.852-5.053,1.349-1.77,2.817-3.7,3.263-5.73,1.273,1.636,2.431,4.544.843,9.177a1.2,1.2,0,0,0,1.269,1.576,3.866,3.866,0,0,0,1.632-.633,6.687,6.687,0,0,1-.816,4.478,4.325,4.325,0,0,1-3.693,2.043,11.455,11.455,0,0,1-1.157-.082,5.053,5.053,0,0,1-2.9-1.623Zm13.7-4.256a10.307,10.307,0,0,1-3.337,4.08,9.763,9.763,0,0,0-.282-7.844,1.2,1.2,0,0,0-1.237-.672l-.071.012a10.672,10.672,0,0,0-1.474-6.89,9.411,9.411,0,0,0-3.313-3.213,1.2,1.2,0,0,0-1.642,1.541c.85,1.959-.863,4.207-2.677,6.587C94.419,28.052,92.857,30.1,92.6,32.3a7.824,7.824,0,0,0,.306,3.239,11.7,11.7,0,0,1-2.425-2.965c-1.954-3.4-2.21-6.478-.781-9.41A28.161,28.161,0,0,1,91.8,19.731c1.448-2.136,2.936-4.332,3.146-7.29a14.767,14.767,0,0,1,2.11,2.018,1.2,1.2,0,0,0,2.071-1.075,8.106,8.106,0,0,1,.644-6.4,10.116,10.116,0,0,1,4.191-3.658,13.157,13.157,0,0,0,.411,6.524,50.045,50.045,0,0,0,3.916,9.008c.683,1.323,1.328,2.573,1.78,3.62a12.416,12.416,0,0,1-.1,9.987Z" transform="translate(14 123.49)" fill="#d36301" stroke="#d36301" stroke-width="1"/>
    </g>
  </g>
</svg>
