<svg xmlns="http://www.w3.org/2000/svg" width="24.002" height="24" viewBox="0 0 24.002 24">
  <path id="cowboy-hat" d="M20.77,5.5l-.2.378a4.823,4.823,0,0,1-1.807,1.911L17.622,2.408A3.018,3.018,0,0,0,12.945.558L12,1.216,11.057.558A3.018,3.018,0,0,0,6.38,2.408L5.236,7.793A4.823,4.823,0,0,1,3.429,5.882l-.2-.378H0V9.64c0,2.106,1.294,4.061,3.644,5.5q.5.306,1.044.571a6.708,6.708,0,0,0,4.866,6l1.269.359L10,23.173l1.125.844L12,22.846l.88,1.171,1.125-.844-.826-1.1,1.268-.359a6.709,6.709,0,0,0,4.866-6q.544-.265,1.044-.571C22.707,13.7,24,11.746,24,9.64V5.5Zm-2.938,4.664A11.813,11.813,0,0,1,12,11.827a11.811,11.811,0,0,1-5.831-1.658l.337-1.587A11.74,11.74,0,0,0,12,10.017,11.745,11.745,0,0,0,17.5,8.581Zm-.983,8.288a5.261,5.261,0,0,1-2.785,1.9L12,20.944,9.937,20.36a5.308,5.308,0,0,1-3.749-4.023A17.729,17.729,0,0,0,12,17.279a17.731,17.731,0,0,0,5.812-.941A5.264,5.264,0,0,1,16.849,18.457Z" transform="translate(0 -0.017)" fill="#66615c"/>
</svg>
