<svg xmlns="http://www.w3.org/2000/svg" width="17.016" height="26" viewBox="0 0 17.016 26">
  <g id="fire_2_" data-name="fire (2)" transform="translate(-88.456 0)">
    <path id="Path_11508" data-name="Path 11508" d="M104.715,14.183c-1.53-3.544-5.808-9.675-3.777-13.805a.259.259,0,0,0-.317-.362C98.856.64,94.146,2.86,95.607,8.439A9.035,9.035,0,0,0,93.05,6.331a.259.259,0,0,0-.357.26c.255,3.373-2.143,5.179-3.53,8.028a7.454,7.454,0,0,0,.566,7.268,8.9,8.9,0,0,0,4.018,3.662q-.154-.146-.3-.306a4.98,4.98,0,0,1-1.213-3.884,8.986,8.986,0,0,1,2.146-4.02c1.17-1.536,2.276-2.986,1.727-4.251a.772.772,0,0,1,1.06-.994,6.073,6.073,0,0,1,2.138,2.073,6.887,6.887,0,0,1,.951,4.446l.046-.007a.772.772,0,0,1,.8.434,6.138,6.138,0,0,1-.193,5.783A4.368,4.368,0,0,1,99.826,26C104.823,24.458,106.652,18.669,104.715,14.183Z" transform="translate(0 0)" fill="#66615c"/>
    <path id="Path_11509" data-name="Path 11509" d="M196.623,287.042a10.427,10.427,0,0,1-2.126,3.734,8.153,8.153,0,0,0-1.858,3.293,3.469,3.469,0,0,0,.84,2.707,3.32,3.32,0,0,0,2.514,1.113,2.838,2.838,0,0,0,2.539-1.334,4.359,4.359,0,0,0,.532-2.918,2.519,2.519,0,0,1-1.064.413.779.779,0,0,1-.827-1.027C198.207,290,197.453,288.108,196.623,287.042Z" transform="translate(-98.901 -272.578)" fill="#66615c"/>
  </g>
</svg>
