<svg xmlns="http://www.w3.org/2000/svg" width="21.001" height="25.006" viewBox="0 0 21.001 25.006">
  <g id="fire-extinguisher" transform="translate(-41)">
    <path id="Path_11526" data-name="Path 11526" d="M215,263h5.47v5.568H215Z" transform="translate(-165.502 -250.155)" fill="#66615c"/>
    <path id="Path_11527" data-name="Path 11527" d="M61.068.077,55.6,1.64a.733.733,0,0,0-.531.7v.44H52.233V.733A.733.733,0,0,0,51.5,0H47.593a.733.733,0,0,0-.733.733V2.825A6.6,6.6,0,0,0,41,9.377a.733.733,0,1,0,1.465,0,5.136,5.136,0,0,1,4.4-5.076V5.449a5.44,5.44,0,0,0-2.735,4.71V24.274a.733.733,0,0,0,.733.733h9.377a.733.733,0,0,0,.733-.733v-4.4h-6.2a.733.733,0,0,1-.733-.733V12.112a.733.733,0,0,1,.733-.733h6.2V10.159a5.413,5.413,0,0,0-2.735-4.71v-1.2h2.833v.44a.733.733,0,0,0,.531.7l5.47,1.563a.733.733,0,0,0,.934-.7V.781a.733.733,0,0,0-.934-.7Z" fill="#66615c"/>
  </g>
</svg>
