<svg xmlns="http://www.w3.org/2000/svg" width="73" height="73" viewBox="0 0 73 73">
  <g id="forest-fire" transform="translate(-68.247 279)">
    <path id="Path_11487" data-name="Path 11487" d="M73.064,58.922,66.919,45.064a10.645,10.645,0,0,0,4.441-4.036,14.336,14.336,0,0,0,.307-13.66,2.144,2.144,0,0,0-2-1.182A15.843,15.843,0,0,0,67.225,15.9a15.008,15.008,0,0,0-5.367-4.961,2.14,2.14,0,0,0-2.092.123l-4.341-9.79a2.14,2.14,0,0,0-3.911,0L42.083,22.54a2.137,2.137,0,0,0,1.955,3h.419l-1.375,3.1L38.7,18.766a2.14,2.14,0,0,0-3.911,0l-4.38,9.877-1.375-3.1h.419a2.137,2.137,0,0,0,1.955-3L21.98,1.271a2.139,2.139,0,0,0-3.911,0L16.26,5.351c-.154-.276-.317-.551-.5-.824a12.62,12.62,0,0,0-4.6-4.24,2.138,2.138,0,0,0-2.885,2.8c.878,1.93-.793,4.246-3.442,7.559C2.794,13.21.677,15.857.321,18.81a10.088,10.088,0,0,0,2.467,7.9A10.555,10.555,0,0,0,9,30.088L4.021,41.31a2.137,2.137,0,0,0,1.955,3h.933L.43,58.922a2.137,2.137,0,0,0,1.955,3H13.661v8.939A2.138,2.138,0,0,0,15.8,73h8.45a2.138,2.138,0,0,0,2.139-2.137V62.549h3.995v8.314A2.138,2.138,0,0,0,32.522,73h8.45a2.132,2.132,0,0,0,1.554-.672A8.75,8.75,0,0,0,45.895,73a8.88,8.88,0,0,0,2.278-.29,2.128,2.128,0,0,0,1.072.29h8.45a2.138,2.138,0,0,0,2.139-2.137V61.924H71.108a2.137,2.137,0,0,0,1.955-3Zm-9.31-40.517c2.1,3.317,2.272,7.5.5,12.426A2.137,2.137,0,0,0,66.5,33.678a6.436,6.436,0,0,0,2.391-.82,9.34,9.34,0,0,1-1.169,5.92,6.805,6.805,0,0,1-6.131,3.171,8.04,8.04,0,0,1-6.118-2.663,7.355,7.355,0,0,1-1.821-5.839c.269-2.231,2.4-4.891,4.454-7.464a33.851,33.851,0,0,0,4.483-6.6c.01-.019.018-.038.027-.057l.027-.06c.015-.034.03-.067.043-.1a11.863,11.863,0,0,0,.551-1.505c.176.233.35.481.516.744ZM5.988,23.876a5.738,5.738,0,0,1-1.421-4.555c.211-1.746,1.941-3.911,3.615-6a29.692,29.692,0,0,0,3.644-5.282A11.1,11.1,0,0,0,12.269,7l.021.033a8.923,8.923,0,0,1,1.342,4.649c0,.052,0,.1,0,.156a15.012,15.012,0,0,1-.984,5.15A2.137,2.137,0,0,0,14.9,19.831a5.5,5.5,0,0,0,1.625-.471A7.2,7.2,0,0,1,15.56,23.5a5.293,5.293,0,0,1-4.773,2.456,6.3,6.3,0,0,1-4.8-2.084Zm11.95,44.851v-6.8h4.173v6.8Zm5.217-11.076H5.672l6.479-14.61a2.137,2.137,0,0,0-1.955-3H9.263l4.525-10.2a9.179,9.179,0,0,0,5.408-4.08,12.257,12.257,0,0,0,.271-11.68,2.139,2.139,0,0,0-1.6-1.16c.015-.233.023-.469.028-.706l2.127-4.8,6.145,13.857H25.75a2.137,2.137,0,0,0-1.955,3l4.28,9.652a2.136,2.136,0,0,0,1.377,2.8l-4.6,10.369a2.137,2.137,0,0,0,1.662,2.982Zm8.594-8.832a2.137,2.137,0,0,0-1.662-2.982l4.565-10.3a2.136,2.136,0,0,0-1.332-2.909l3.426-7.726,3.426,7.726a2.136,2.136,0,0,0-1.332,2.909l4.566,10.3a2.137,2.137,0,0,0-1.663,2.982l1.906,4.3c-.1,1.083-1.147,2.484-2.63,4.339-.218.272-.436.546-.652.821H27.556Zm2.911,13.73h3.151a6.712,6.712,0,0,0-.291,1.291,8.1,8.1,0,0,0,.954,4.887H34.661Zm8.039,4.8a3.771,3.771,0,0,1-.933-2.994c.139-1.157,1.388-2.719,2.6-4.229a24.032,24.032,0,0,0,2.676-3.839,8.441,8.441,0,0,1-.252,6.072A2.137,2.137,0,0,0,49.034,65.2a4.017,4.017,0,0,0,.618-.122,4.582,4.582,0,0,1-.637,2.061,3.413,3.413,0,0,1-3.12,1.587A4.2,4.2,0,0,1,42.7,67.345Zm12.856,1.382H53.019a9.679,9.679,0,0,0,.552-6.8h1.985Zm-3.84-11.076a10.288,10.288,0,0,0-1.644-4.744,10.438,10.438,0,0,0-2.85-2.886,2.135,2.135,0,0,0,1.418-2.933l-4.6-10.369a2.136,2.136,0,0,0,1.377-2.8L49.7,24.27a2.137,2.137,0,0,0-1.955-3h-.419L53.469,7.412l4.853,10.943a38.474,38.474,0,0,1-3.557,4.962c-2.431,3.04-4.944,6.183-5.359,9.62a11.728,11.728,0,0,0,2.867,9.185,12.428,12.428,0,0,0,9.318,4.1q.581,0,1.142-.047l5.089,11.475Z" transform="translate(68 -279)" fill="#d36301"/>
  </g>
</svg>
