<svg xmlns="http://www.w3.org/2000/svg" width="13.507" height="16.933" viewBox="0 0 13.507 16.933">
  <g id="Group_3246" data-name="Group 3246" transform="translate(-754 -496.067)">
    <ellipse id="Ellipse_78" data-name="Ellipse 78" cx="4" cy="2" rx="4" ry="2" transform="translate(757 509)" fill="#555" opacity="0.12"/>
    <g id="fire" transform="translate(754 496.067)">
      <g id="fire-2" data-name="fire">
        <path id="Subtraction_2" data-name="Subtraction 2" d="M6.929,15.317H6.085a5.781,5.781,0,0,1-2.367-.506,6,6,0,0,1-1.034-.593,6.226,6.226,0,0,1-.9-.785,6.42,6.42,0,0,1-.743-.951,6.554,6.554,0,0,1-.561-1.091,6.654,6.654,0,0,1-.355-1.206A6.806,6.806,0,0,1,0,8.891,10.649,10.649,0,0,1,.408,5.962a10.348,10.348,0,0,1,1.2-2.68l.569-.906a.44.44,0,0,1,.153-.147.4.4,0,0,1,.2-.054.375.375,0,0,1,.125.021.423.423,0,0,1,.22.162.469.469,0,0,1,.086.269V4.386a3.59,3.59,0,0,0,.055.624,3.784,3.784,0,0,0,.157.6,6.194,6.194,0,0,1,.336-1.693,5.983,5.983,0,0,1,.755-1.47,5.875,5.875,0,0,1,1.1-1.182A5.753,5.753,0,0,1,6.748.431,5.349,5.349,0,0,1,8.856,0a.419.419,0,0,1,.222.063A.4.4,0,0,1,9.23.233a.463.463,0,0,1-.017.458L8.473,1.858a2.208,2.208,0,0,0-.3,1.6,2.19,2.19,0,0,0,.114.389,2.161,2.161,0,0,0,.185.363,2.135,2.135,0,0,0,.575.6,2.861,2.861,0,0,1,.689.673,3.1,3.1,0,0,1,.441.862,9.723,9.723,0,0,0,.365-2.612.469.469,0,0,1,.086-.269.423.423,0,0,1,.22-.162.375.375,0,0,1,.125-.021.4.4,0,0,1,.2.054.44.44,0,0,1,.153.147l1.156,1.831a6.614,6.614,0,0,1,.767,1.705,6.762,6.762,0,0,1,.14,3.161,6.637,6.637,0,0,1-.356,1.206,6.55,6.55,0,0,1-.563,1.091,6.431,6.431,0,0,1-.746.951,6.244,6.244,0,0,1-.9.785,6.018,6.018,0,0,1-1.035.593,5.793,5.793,0,0,1-2.369.506H6.93a1.679,1.679,0,0,0,.691-.148,1.757,1.757,0,0,0,.3-.174,1.828,1.828,0,0,0,.264-.23,1.886,1.886,0,0,0,.218-.278,1.919,1.919,0,0,0,.164-.319,1.947,1.947,0,0,0,.14-.73,4.469,4.469,0,0,0-.863-2.111c-.192-.335-.409-.714-.659-1.173a.288.288,0,0,0-.4-.119.31.31,0,0,0-.113.119c-.285.522-.521.942-.711,1.28v0h0c-.315.56-.523.929-.645,1.217a2.068,2.068,0,0,0-.128.4,1.885,1.885,0,0,0-.037.39,1.947,1.947,0,0,0,.14.73,1.92,1.92,0,0,0,.164.319,1.886,1.886,0,0,0,.218.278,1.829,1.829,0,0,0,.264.23,1.756,1.756,0,0,0,.3.174,1.679,1.679,0,0,0,.691.148h0Z" transform="translate(0 0)" fill="#c5231f"/>
      </g>
    </g>
  </g>
</svg>
