<svg xmlns="http://www.w3.org/2000/svg" width="15" height="15" viewBox="0 0 15 15">
  <g id="Group_3266" data-name="Group 3266" transform="translate(-509 -482)">
    <circle id="Ellipse_89" data-name="Ellipse 89" cx="7.5" cy="7.5" r="7.5" transform="translate(509 482)" fill="#d36301"/>
    <path id="cowboy-hat" d="M8.494,2.261l-.081.154a1.973,1.973,0,0,1-.739.782L7.207.995A1.234,1.234,0,0,0,5.294.238L4.908.507,4.522.238A1.234,1.234,0,0,0,2.609.995L2.142,3.2A1.973,1.973,0,0,1,1.4,2.416l-.081-.154H0V3.953A2.716,2.716,0,0,0,1.49,6.2q.2.125.427.234A2.744,2.744,0,0,0,3.908,8.89l.519.147-.338.45.46.345.36-.479.36.479.46-.345-.338-.45.519-.147A2.744,2.744,0,0,0,7.9,6.437q.223-.108.427-.234a2.716,2.716,0,0,0,1.49-2.251V2.261Zm-1.2,1.907a4.831,4.831,0,0,1-2.385.678,4.83,4.83,0,0,1-2.385-.678l.138-.649a4.8,4.8,0,0,0,2.247.587,4.8,4.8,0,0,0,2.247-.587Zm-.4,3.39a2.152,2.152,0,0,1-1.139.779l-.844.239-.844-.239A2.171,2.171,0,0,1,2.531,6.692a7.251,7.251,0,0,0,2.377.385,7.251,7.251,0,0,0,2.377-.385A2.153,2.153,0,0,1,6.891,7.558Z" transform="translate(511.997 485.655)" fill="#fff"/>
  </g>
</svg>
