<svg xmlns="http://www.w3.org/2000/svg" width="16.565" height="16.5" viewBox="0 0 16.565 16.5">
  <path id="phone" d="M687.9,651.63l-.77,2.32a2,2,0,0,1-1.086,1.2,10.006,10.006,0,0,1-10.763-1.741c-.127-.115-.242-.228-.34-.327a9.489,9.489,0,0,1-1.5-1.9,8.013,8.013,0,0,1-.389-.721,9.985,9.985,0,0,1-.2-8.5,2,2,0,0,1,1.2-1.086l2.32-.77a2,2,0,0,1,2.528,1.266l1,3a2,2,0,0,1-1,2.421l-.727.364a4.05,4.05,0,0,0,2.681,2.681l.364-.728a2,2,0,0,1,2.422-1l3,1A2,2,0,0,1,687.9,651.63ZM686,651l-3-1-1,2a6.009,6.009,0,0,1-6-6l2-1-1-3-2.32.77A7.918,7.918,0,0,0,674,646a7.837,7.837,0,0,0,.85,3.58,6.035,6.035,0,0,0,.3.56,7.538,7.538,0,0,0,1.19,1.51c.09.09.18.18.28.27a8.006,8.006,0,0,0,8.612,1.4Z" transform="translate(-671.747 -639.75)" fill="#d36301" stroke="#d36301" stroke-width="0.5"/>
</svg>
