<svg xmlns="http://www.w3.org/2000/svg" width="15.3" height="15.3" viewBox="0 0 15.3 15.3">
  <g id="Group_3177" data-name="Group 3177" transform="translate(0.15 0.15)">
    <path id="Path_11514" data-name="Path 11514" d="M2.522,8.923a.439.439,0,0,0-.1.7l2.948,2.948a.44.44,0,0,0,.7-.1l0,0a2.552,2.552,0,0,0-.156-2.753L6.622,9l.952.95a.44.44,0,0,0,.621,0l.6-.6.793.793-.609.609a.439.439,0,0,0,0,.621l3.5,3.5a.44.44,0,0,0,.622,0l1.84-1.84a.439.439,0,0,0,0-.621l-3.5-3.5a.44.44,0,0,0-.622,0l-.609.609-.793-.793,3.42-3.414A2.223,2.223,0,0,0,9.694,2.173L6.275,5.585l-.819-.819.609-.609a.439.439,0,0,0,0-.621L2.659.129a.44.44,0,0,0-.622,0L.2,1.969a.439.439,0,0,0,0,.621L3.6,6a.44.44,0,0,0,.622,0l.609-.609.818.818-.6.6a.439.439,0,0,0,0,.622L6,8.379l-.71.71a2.541,2.541,0,0,0-1.5-.5,2.642,2.642,0,0,0-1.266.33M5.5,11.456,3.533,9.489A1.706,1.706,0,0,1,5,9.991,1.706,1.706,0,0,1,5.5,11.456Zm5.631-1.612,2.876,2.876-1.219,1.219L9.913,11.063l.609-.609h0Zm-.817-7.049a1.349,1.349,0,0,1,1.9,0,1.34,1.34,0,0,1,0,1.9L7.885,9.018l-.947-.945,0-.005-.005,0-.945-.944ZM2.348,1.061,5.134,3.846l-.609.609h0l-.609.609L1.13,2.28Z" transform="translate(-0.069 0)" stroke="#000" stroke-width="0.3"/>
    <path id="Path_11515" data-name="Path 11515" d="M383.055,5.814,382.7,5.63a5.144,5.144,0,0,1-2.215-2.2l-.211-.4a.458.458,0,0,0-.812.425l.211.4a6.056,6.056,0,0,0,2.607,2.588l.358.184a.458.458,0,0,0,.419-.815Z" transform="translate(-379.39 8.234)" stroke="#000" stroke-width="0.3"/>
    <path id="Path_11516" data-name="Path 11516" d="M367.587,57.526l-.09-.049a3.419,3.419,0,0,1-1.426-1.463.458.458,0,0,0-.817.415,4.331,4.331,0,0,0,1.807,1.853l.09.049a.458.458,0,0,0,.436-.806Z" transform="translate(-363.475 -45.111)" stroke="#000" stroke-width="0.3"/>
    <circle id="Ellipse_71" data-name="Ellipse 71" cx="0.458" cy="0.458" r="0.458" transform="translate(10.675 3.419)" stroke="#000" stroke-width="0.3"/>
    <circle id="Ellipse_72" data-name="Ellipse 72" cx="0.458" cy="0.458" r="0.458" transform="translate(9.37 4.724)" stroke="#000" stroke-width="0.3"/>
  </g>
</svg>
