<svg xmlns="http://www.w3.org/2000/svg" width="15" height="14.999" viewBox="0 0 15 14.999">
  <path id="play_video" d="M513.875,175A1.874,1.874,0,0,1,512,173.125v-6.563a1.859,1.859,0,0,1,.261-.939,1.869,1.869,0,0,1-.261-.936v-1.875a1.875,1.875,0,0,1,1.72-1.869l11.25-.937c.052,0,.1-.006.156-.006A1.876,1.876,0,0,1,527,161.875v1.875a1.867,1.867,0,0,1-.646,1.407,1.864,1.864,0,0,1,.646,1.406v6.563A1.875,1.875,0,0,1,525.125,175Zm0-1.875h11.25v-6.563h-11.25Zm0-10.312v1.875l2.6-.216-1.731-1.731Zm2.6-.216,1.73,1.731,3.462-.289-1.731-1.731Zm5.192-.433,1.731,1.731,1.731-.144v-1.875Zm-4.038,5.337,4.452,2.343-4.452,2.344Z" transform="translate(-512 -160)" fill="#999"/>
</svg>
