<svg xmlns="http://www.w3.org/2000/svg" width="11" height="10.999" viewBox="0 0 11 10.999">
  <path id="copy_1" d="M580.813,683H578.75a.69.69,0,0,1-.687-.687.655.655,0,0,1,.062-.281.691.691,0,0,1,.626-.406h6.875V674.75a.689.689,0,0,1,.405-.626.649.649,0,0,1,.282-.062.69.69,0,0,1,.687.687v6.875A1.379,1.379,0,0,1,585.625,683Zm-3.438-2.062A1.379,1.379,0,0,1,576,679.563v-6.187A1.379,1.379,0,0,1,577.375,672h6.187a1.379,1.379,0,0,1,1.375,1.375v6.187a1.379,1.379,0,0,1-1.375,1.375Zm0-1.375h6.187v-6.187h-6.187Z" transform="translate(-576 -672)" opacity="0.6"/>
</svg>
