<svg xmlns="http://www.w3.org/2000/svg" width="74.127" height="74.076" viewBox="0 0 74.127 74.076">
  <g id="Group_3243" data-name="Group 3243" transform="translate(-934.423 -698.423)">
    <path id="Path_11494" data-name="Path 11494" d="M-7075.773,2370.865c.424,1.029,3.506,6.482,3.506,6.482l6.354,5.357-4.086,5.146s-1.544,8.965-2.268,9.46-6.6,7.8-6.6,7.8l-6.542-19.912-8.612-.928-5.008-8.166s8.656-6.533,9.487-7.527S-7075.773,2370.865-7075.773,2370.865Z" transform="translate(8053 -1645)" fill="#d36301" opacity="0.249"/>
    <path id="Path_11495" data-name="Path 11495" d="M-7079.582,2374.475c.329.683,2.578.8,2.578.8l2.915,1.855v5.011s-1.2,5.311-1.756,5.64-2.979,5.331-2.979,5.331l-7.06-5.331-5.038-15.069s4.395-1.373,5.038-2.033S-7079.582,2374.475-7079.582,2374.475Z" transform="translate(8028.089 -1632)" fill="#d36301" opacity="0.249"/>
    <path id="Path_11496" data-name="Path 11496" d="M-7078.91,2370.865c.316.878,1.5,5.67,1.5,5.67l-.6,3.872-2.185,3.74s-2.822,5.589-3.361,6.011-2.03,5.129-2.03,5.129h-2.509l-2.5-.741s3.352-12.331,3.972-13.18S-7078.91,2370.865-7078.91,2370.865Z" transform="translate(8028.604 -1663)" fill="#d36301" opacity="0.249"/>
    <g id="world" transform="translate(935 698.999)">
      <g id="Group_3160" data-name="Group 3160" transform="translate(52.559 65.449)">
        <g id="Group_3159" data-name="Group 3159">
          <path id="Path_11503" data-name="Path 11503" d="M371.344,459.746a1.426,1.426,0,0,0-1.949-.518l-.055.032a1.426,1.426,0,1,0,1.431,2.466l.055-.032A1.426,1.426,0,0,0,371.344,459.746Z" transform="translate(-368.63 -459.036)" fill="#d36301" stroke="#d36301" stroke-width="1"/>
        </g>
      </g>
      <g id="Group_3162" data-name="Group 3162" transform="translate(0 0.001)">
        <g id="Group_3161" data-name="Group 3161">
          <path id="Path_11504" data-name="Path 11504" d="M68.109,18.262a36.491,36.491,0,0,0-66.85,8.8,36.5,36.5,0,0,0,48.3,43.527,1.426,1.426,0,1,0-1.023-2.661,33.424,33.424,0,0,1-32.164-4.42l1.277-6.668.616-.2a4.441,4.441,0,0,0,2.848-5.589l-.452-1.39a1.574,1.574,0,0,1,0-.983A4.436,4.436,0,0,0,17.3,42.943l-3.218-.629L7.874,37.593a1.426,1.426,0,0,0-1.3-.221L2.935,38.553a33.612,33.612,0,0,1,0-3.893c.143.134.237.224.294.284a1.495,1.495,0,0,0,1.393.714,20.709,20.709,0,0,0,2.555-.291c1.2-.178,2.4-.378,2.411-.38a1.425,1.425,0,0,0,.942-2.209L8.778,30.214l2.5-1.79a1.427,1.427,0,0,0,.408-.451L15.571,21.2l1.565-1.676A6.022,6.022,0,0,0,18.3,13.133a6.557,6.557,0,0,0-2.6-3.059,33.6,33.6,0,0,1,20.417-7.2L33.571,6.072,24.13,9.382a1.425,1.425,0,0,0-.846.8l-2.637,6.391a1.426,1.426,0,0,0,.158,1.372l3.851,5.394a13.55,13.55,0,0,0-1.729,2.146c-.281.4-.547.776-.73.987-.16.184-.319.364-.477.542A13.342,13.342,0,0,0,19.426,30.2a8.5,8.5,0,0,0,.705,8.589,8,8,0,0,0,7.555,3.242,11.1,11.1,0,0,0,1.393-.281c1.222-.3,1.61-.333,2,.034.191.179.208.212.2.818a5.542,5.542,0,0,0,.127,1.413,4.5,4.5,0,0,0,1.205,1.968,3.2,3.2,0,0,1,.517.66c.445,1.066.251,1.656-.173,2.949q-.055.166-.111.339c-.645,2,.254,3.975,1.047,5.721.257.567.5,1.1.66,1.575,1.282,3.8,2.243,4.675,3.014,5.026a2.971,2.971,0,0,0,1.244.264c2.055,0,4.2-1.908,5.185-3.118a4.382,4.382,0,0,0,.882-2.076,2.273,2.273,0,0,1,.182-.637,3.736,3.736,0,0,1,.468-.6A4.946,4.946,0,0,0,46.7,54.146a3.137,3.137,0,0,1,.968-1.518c.1-.1.2-.216.315-.338,1.9-2.066,1.41-3.645.892-5.316-.436-1.406.327-2.306,2.17-4.022a15.4,15.4,0,0,0,2.264-2.438,3.078,3.078,0,0,0,.6-2.856c-.516-1.2-1.826-1.4-2.88-1.559a4.724,4.724,0,0,1-1.244-.291,6.74,6.74,0,0,1-1.944-2.945c-.1-.232-.206-.46-.31-.682-.185-.4-.371-.875-.567-1.383a11.961,11.961,0,0,0-2.107-3.925c-.9-.953-2.6-1.412-4.091-1.817-.5-.136-.978-.265-1.291-.38a1.424,1.424,0,0,0-.819-.051,3.7,3.7,0,0,0-1.52.629,1.771,1.771,0,0,0-.508.683,16.307,16.307,0,0,1-1.681-1.023L34.92,24.9a2.021,2.021,0,0,0-.127-1.372c-.8-1.685-3.44-1.553-3.962-1.508-.3.025-.671.038-1.068.052-.623.022-1.311.047-1.992.123l.035-.1a3.645,3.645,0,0,1,3.423-2.408h.811a1.426,1.426,0,1,0,0-2.851H31.23a6.508,6.508,0,0,0-5.519,3.078l-2.127-2.979,2.092-5.071L34.9,8.627a1.426,1.426,0,0,0,.643-.457l4.1-5.144A33.622,33.622,0,0,1,65.64,19.688,33.271,33.271,0,0,1,69,27.848l-.6.539a3.808,3.808,0,0,0-1.269,2.77c0,.012,0,.023,0,.034l-.985-2.708a3.559,3.559,0,0,0-.642-1.1l-1.756-2.056a3.573,3.573,0,0,0-2.721-1.254h-2.15a2.065,2.065,0,0,0-1.718,3.21l.218.327a15.8,15.8,0,0,1-4.707,2.8l-2.947-5.645V23.5a1.425,1.425,0,0,0-.441-1.031l-2.654-2.533a1.428,1.428,0,0,0-.512-.314l-2.389-.84a1.426,1.426,0,0,0-.945,2.69l2.1.738,1.991,1.9v1a1.426,1.426,0,0,0,.162.66l3.69,7.067a1.425,1.425,0,0,0,1.757.678l1.074-.4a18.658,18.658,0,0,0,6.69-4.282,1.426,1.426,0,0,0,.178-1.8l-.076-.114h.681a.726.726,0,0,1,.553.255l1.756,2.056a.724.724,0,0,1,.13.224l1.938,5.33a1.425,1.425,0,0,0,2.348.521l.923-.923a4.451,4.451,0,0,0,1.179-2.144,33.761,33.761,0,0,1-12.535,30.7,1.426,1.426,0,0,0,1.76,2.243,36.5,36.5,0,0,0,9.035-46.927ZM6.742,40.314l5.879,4.47a1.424,1.424,0,0,0,.59.264l3.543.692a1.584,1.584,0,0,1,1.2,2.048,4.407,4.407,0,0,0,0,2.753l.452,1.39a1.586,1.586,0,0,1-1.017,2l-1.417.46a1.425,1.425,0,0,0-.96,1.088l-1.14,5.952a34.016,34.016,0,0,1-6.495-8.1A33.462,33.462,0,0,1,3.232,41.455Zm8.309-22.74-1.677,1.8a1.432,1.432,0,0,0-.195.264L9.37,26.285l-3.385,2.42a1.426,1.426,0,0,0-.349,1.963L6.9,32.525c-.73.109-1.385.2-1.82.246-.084-.08-.171-.162-.262-.246-.339-.315-.81-.735-1.512-1.35A33.7,33.7,0,0,1,13.351,12.1a3.707,3.707,0,0,1,2.31,2.115A3.164,3.164,0,0,1,15.051,17.575Zm11.624,7.791a9.142,9.142,0,0,1,3.189-.448c.432-.015.84-.03,1.2-.06a3.878,3.878,0,0,1,.607,0,1.425,1.425,0,0,0,.656,1.774c.267.143.64.391,1.034.654a8.215,8.215,0,0,0,3.564,1.66,2.366,2.366,0,0,0,1.937-.807c.021-.021.04-.042.06-.061a1.528,1.528,0,0,0,.382-.467c.228.065.468.13.713.2a9.494,9.494,0,0,1,2.763,1.022,10.12,10.12,0,0,1,1.521,3c.214.555.417,1.078.644,1.564.1.208.193.423.291.64A8.9,8.9,0,0,0,48.226,38.2a5.893,5.893,0,0,0,2.372.723l.311.049a13.786,13.786,0,0,1-1.809,1.9c-1.765,1.644-3.962,3.689-2.95,6.953.477,1.541.5,1.708-.268,2.543-.1.114-.2.218-.294.315a5.859,5.859,0,0,0-1.607,2.607,2.225,2.225,0,0,1-.581.906,6.366,6.366,0,0,0-.8,1.056,4.62,4.62,0,0,0-.516,1.515,1.746,1.746,0,0,1-.3.836,8.311,8.311,0,0,1-1.8,1.592,2.352,2.352,0,0,1-1.195.476,10.171,10.171,0,0,1-1.536-3.349c-.205-.61-.49-1.237-.766-1.844-.607-1.337-1.235-2.72-.93-3.666q.054-.167.107-.327a6.228,6.228,0,0,0,.1-4.936,5.141,5.141,0,0,0-1.038-1.479,2.65,2.65,0,0,1-.545-.723,3.082,3.082,0,0,1-.047-.721A3.536,3.536,0,0,0,33.03,39.7c-1.578-1.477-3.418-1.022-4.635-.721a8.944,8.944,0,0,1-1.04.217,5.122,5.122,0,0,1-4.908-2.075A5.645,5.645,0,0,1,22,31.416,10.825,10.825,0,0,1,23.85,28.91c.166-.186.333-.374.5-.567.278-.321.584-.755.908-1.214A10.307,10.307,0,0,1,26.675,25.366Z" transform="translate(0 -0.001)" fill="#d36301" stroke="#d36301" stroke-width="1"/>
        </g>
      </g>
      <g id="Group_3164" data-name="Group 3164" transform="translate(49.924 45.442)">
        <g id="Group_3163" data-name="Group 3163">
          <path id="Path_11505" data-name="Path 11505" d="M358.686,322.357,358,319.771a1.426,1.426,0,0,0-2.631-.314c-.156.288-.3.593-.433.888a6.127,6.127,0,0,1-.712,1.293,3.148,3.148,0,0,1-.837.5,3.92,3.92,0,0,0-2.374,2.308,4.177,4.177,0,0,0-.094,2.012,1.3,1.3,0,0,1-.036.84l-.014.033c-.454,1.065-1.3,3.047-.114,4.733a2.97,2.97,0,0,0,2.423,1.512,2.313,2.313,0,0,0,.38-.031c1.454-.238,2.548-1.75,3.441-4.761l1.677-5.652A1.425,1.425,0,0,0,358.686,322.357Zm-4.422,5.612a8.649,8.649,0,0,1-1.091,2.569c-.027-.034-.056-.073-.087-.117-.272-.388.135-1.344.4-1.977l.014-.033a4.012,4.012,0,0,0,.234-2.375,1.5,1.5,0,0,1-.006-.74c.056-.178.39-.35.893-.593.223-.108.469-.226.717-.37Z" transform="translate(-350.15 -318.711)" fill="#d36301" stroke="#d36301" stroke-width="1"/>
        </g>
      </g>
      <g id="Group_3166" data-name="Group 3166" transform="translate(36.507 16.833)">
        <g id="Group_3165" data-name="Group 3165">
          <path id="Path_11506" data-name="Path 11506" d="M258.038,118.173l-.1-.034A1.426,1.426,0,1,0,257,120.83l.1.034a1.426,1.426,0,1,0,.944-2.691Z" transform="translate(-256.044 -118.059)" fill="#d36301" stroke="#d36301" stroke-width="1"/>
        </g>
      </g>
    </g>
  </g>
</svg>
